<?xml version="1.0" encoding="UTF-8" standalone="no"?>
<svg xmlns:rdf="http://www.w3.org/1999/02/22-rdf-syntax-ns#" xmlns="http://www.w3.org/2000/svg" xml:space="preserve" height="150.01" width="150" version="1.1" xmlns:cc="http://creativecommons.org/ns#" xmlns:dc="http://purl.org/dc/elements/1.1/" viewBox="0 0 150 150.00552"><g><g><path d="m75.099 1.1847c-40.806 0-74.005 33.201-74.005 74.002 0 40.806 33.199 74.005 74.005 74.005s73.999-33.199 73.999-74.005c0-40.803-33.193-74.002-73.999-74.002z"/><path fill="#fff" d="m75.099 3.4034c39.58 0 71.778 32.204 71.778 71.784 0 39.585-32.198 71.784-71.778 71.784-39.585 0-71.784-32.201-71.784-71.784 0-39.58 32.201-71.784 71.784-71.784z"/><path d="m75.149 5.7216c-38.418 0-69.565 31.144-69.565 69.56 0 38.421 31.147 69.565 69.565 69.565s69.56-31.144 69.56-69.565c0-38.415-31.141-69.56-69.56-69.56z"/><path fill="#fff" d="m76.539 9.4029c27.141 0.4521 51.241 18.391 60.111 42.696 6.941 17.619 5.0812 41.343-5.0779 56.905-7.266 11.957-17.613 21.469-30.477 26.747-0.77006 0.51219-1.6713 0.70891-2.572 0.89965-1.9923 1.0915-4.307 1.6754-6.5569 2.1912-12.925 3.854-27.848 2.4404-40.187-1.8656-1.42-0.71001-3.0876-1.1582-4.3768-1.9318-14.266-6.68-26.038-18.38-32.332-32.85-6.6897-14.589-7.2693-34.789-1.285-49.958 9.449-25.534 33.69-43.146 62.754-42.827z"/><path d="m75.325 28.185c-26.217 0-47.461 21.252-47.461 47.467 0 26.217 21.243 47.467 47.461 47.467 26.214 0 47.467-21.249 47.467-47.467 0-26.214-21.252-47.467-47.467-47.467z"/><path fill="#fff" d="m75.325 29.118c25.698 0 46.534 20.835 46.534 46.534 0 25.694-20.835 46.534-46.534 46.534-25.705 0-46.534-20.839-46.534-46.534 0-25.698 20.828-46.534 46.534-46.534z"/><path d="m75.325 30.029c-25.196 0-45.624 20.43-45.624 45.624 0 25.196 20.426 45.618 45.624 45.618 25.196 0 45.619-20.421 45.619-45.618 0-25.193-20.421-45.624-45.619-45.624z"/><path d="m76.101 30.893c1.1214 0.01837 2.2386 0.08102 3.3558 0.19318 14.147 1.095 26.747 9.3306 33.95 20.835 0.77359 1.7379 1.9335 3.4123 2.7707 5.2104 0.25433-0.25786 0.63913-0.32145 0.83342 0v0.4526c-0.32145 0.12717-0.3219-0.25919-0.4526-0.38636l-0.25388 0.25388c5.5953 12.734 4.8207 29.709-2.8977 41.219-0.38503 0.44861-0.57247-0.45214-1.0211 0-0.32498 0.44861 0.12143 0.90273 0.12143 1.4185-0.18722-0.0671-0.25103 0.12408-0.31461 0.18766-0.26139-0.57578 0.0616-1.6086-0.71198-1.7993-0.57931 0.51573-0.323 1.607-0.25942 2.2464 0.77359 1.3494-1.1557 2.0638-1.4736 3.0246-0.5122 0.0707-0.45237-0.70868-0.57954-1.0266-0.0636-0.19075-0.32342-0.13245-0.44705-0.13245-0.6429 1.0314 0.3243 1.9969-0.32566 2.8977-1.4765 1.2893-2.7639 3.0223-4.4983 4.1173l-0.45214-0.32497c-0.57931 0.19074-0.38526 0.83386-0.57954 1.286-1.0915 0.38503-2.0583 2.5089-3.0192 1.3467-0.12717 0-0.19584 0.0689-0.25942 0.13245 0 0.19781 0.0651 0.44683 0.25942 0.57399-0.25786 0.32851-0.57821 0.52147-0.89965 0.58505-0.32145-0.38503 0.1234-1.1608-0.57954-1.2915-0.51926 0.45568-0.51618 1.1646-0.4526 1.8711-1.0915 0.57577-1.9282 1.8589-3.3447 1.3467-0.38503 0.25786-0.2508 0.70822-0.70648 0.83895h-0.32011c0-0.38856-0.13203-0.64464-0.38636-0.83895-0.38856-0.0671-0.45039 0.38723-0.574 0.58504 0 0.31792 0.2508 0.57358 0 0.82791-0.71354 0.13069-0.83652-2.1152-1.3522-0.38082 0.32145 1.0314-0.51618 1.2238-1.1591 1.4074h-0.70647c-0.19075-0.70294-0.001-1.8527-0.77823-1.987-0.3815 0.83718-0.31218 1.6114-0.12143 2.4451-0.71 0.0636-1.2844 0.83319-1.998 0.25388 0.13069-0.8407 0.25941-2.1214-0.44706-2.5665-0.96434 0.77006-0.003 2.5031-0.77272 3.1461-0.32144-0.83718 0.25985-2.6378-0.96589-2.892-0.83364 0.96434 0.9703 4.4395-1.9262 3.4716-0.45215-1.088-0.00045-2.187-0.4526-3.2786-0.76653-0.12717-0.51219 0.77203-0.70648 1.1535v2.3181h-0.25387c0-0.89722 0.1245-2.123-0.0662-3.091l-0.38636-0.38082c-1.2222 0.83364 0.64399 4.1106-1.6061 3.7257 0.0636-1.0279 0.44994-2.445-0.32012-3.1514-0.57931 0.83364-0.64798 2.1837-0.25942 3.1514-0.0636 0.19075-0.38502 0.2603-0.70647 0.19318 0-0.19075 0.0594-0.70537-0.32566-0.89965-0.31438-0.12717-0.38172 0.25653-0.57953 0.32012v0.57953h-0.70097c0.12717-0.83364 0.38416-2.0552-0.19869-2.7652-0.76652 0.32498-0.44663 1.4792-0.70096 2.1857 0.06 0.19428 0.32099 0.3252 0.25388 0.57953l-0.83342 0.12694c-0.57577-1.0915 0.63561-2.9584-0.57953-3.6649-0.71354 0.96787-0.51242 2.5736-0.57954 3.538-1.2222-0.06-2.5769 0.19185-3.6649-0.19318 0.19075-1.1551 0.57555-2.5705 0.12694-3.7257-0.44861-0.19074-0.63936 0.32323-0.70647 0.574l-0.12694 3.1514c-1.6072-0.90075-4.0518-0.12959-5.2104-1.6061l-0.0662-3.0246c-1.3458 0.32145-0.38503 2.1274-0.70647 3.0246h-1.0266c-0.45215-0.25787-1.1608-0.45237-1.7331-0.57954-1.4836-0.2614 0.001-2.6378-1.2915-2.892-0.38856 0.64643-0.18897 1.4158-0.574 2.0587-0.90429-0.1307-0.004-1.9331-1.1591-1.6116-0.2614 0.25786 0.003 0.96875-0.57954 0.90516-0.38149-0.32144-0.0662-1.1591-0.77271-1.1591-0.38856 0.32145-0.51463 0.71134-0.89965 0.38636 0.0636-0.96434 0.31989-2.5707-0.25942-3.5985-0.64289 0.76652-0.77424 2.2444-0.32563 3.2122-1.798-0.44861 0.0744-2.568-1.275-3.5324-0.84071 0.44508-0.32543 1.6059-0.4526 2.4396-0.83364-0.0601-0.25942-1.6664-0.96589-2.1857-0.51573 0.25787-0.32034 1.2253-0.89965 1.2253-0.25787-0.39209-0.00022-1.2253-0.57954-1.2253-0.12717 0.1307-0.32012 0.25631-0.32012 0.44706-0.89722-0.44861 0.064-1.673-0.25388-2.7045 0.06-0.3815 0.0596-0.89039-0.45259-1.0211-0.90076 0.51572-0.19451 1.7984-0.57954 2.572h-0.25942l-0.32011-2.572c-0.1307 0-0.25654 0.0609-0.32012-0.0662-0.57578 0.38149-0.39232 1.1575-0.57954 1.6061-0.57931-0.63936 0.18722-1.6039-0.70647-1.9925l-0.71199 0.96589c-0.51219-0.38503-0.19162-2.0556-1.3467-1.5399-0.1307-0.63936-0.58329-0.77624-1.1591-1.0376-0.32145-0.95727 0.71156-2.1839-0.44706-2.7597-0.45214 0.0636-0.25831 0.51573-0.45259 0.70648-0.3815 0-0.32145-0.57954-0.70648-0.31461-0.1307 0.12363-0.13202 0.31085-0.38636 0.44154-0.57931-1.0279-2.1241-1.7331-2.1912-3.1461-0.57578-0.25433-1.0888-0.77294-1.3467-1.3523-0.38503-0.51219 0.51793-1.0341-0.12143-1.4792-0.32498 0-0.71464 0.44884-0.77822-0.12694-0.45215-0.44861 0.3241-0.64334 0.0662-1.1591 1.0279 0.57931 0.96148 1.7311 2.1801 1.286-0.06 1.1551 1.4823 0.77294 1.2915 2.0587 0.44861 0.12716 0.89878 0.18942 1.4074 0.32011v0.38636c-0.31791 0-0.70249-0.57931-0.96035 0-0.19075 0.70648-0.12386 1.7397 0.39186 2.2519 0.31792-0.0636 0.44486-0.25808 0.56849-0.57953 0 0.25786 0.45347 0.51174 0.65129 0.25388 0.51219-0.63936 0.12804-1.5428-0.0662-2.1857 0.0671-0.12716 0.25543-0.323 0.51329-0.25941-0.19428 0.77712-0.12583 1.7423 0.38636 2.3181 0.18722 0.0707 0.45237-0.002 0.57954-0.19318 0.45214 0.57931-0.96214 2.3188 0.32011 3.0853 0 0.51926-0.0634 1.2195 0.57954 1.3467 0.51219-0.18722 1.1557-0.0607 1.7386-0.0607l0.32012 0.4526c1.8015-1.3494 0.19363-3.8537 2.7652-4.6308 0.96434-0.19074 1.4132-1.5388 2.699-1.0266 0.25786-1.4801 1.9938-1.0337 3.0853-1.2915l0.89966 0.13245c-0.0636 0.38503-0.31616 0.96103 0.13245 1.286 0.25786 0.0636 0.51397-0.25832 0.57399-0.4526 0-0.25433 0.0638-0.51219-0.12694-0.70647 0.25434-0.19428 0.64092-0.0634 0.9659-0.12694-0.19782 0.57931-0.19782 1.4132 0 1.9925 0.44861 0.0636 0.45146-0.5122 0.64577-0.70648v-1.286c7.4604 0.12717 13.949 0.12694 20.83 0.12694 0.0636 0.32498 0.38613 0.51838 0.5133 0.77271 0.12716-0.19428 0.64134-0.1936 0.44706-0.64577 2.4479-0.0565 4.3745-0.25433 6.8825 0 1.1586 0.25786 1.6081 2.0026 3.0246 1.8048 1.1586 1.3529 3.538 1.7322 3.538 3.9187-0.0636 0.44861 0.19451 0.77161 0.57954 0.96589 0.70294-0.51572 2.4382 0.58129 2.7597-0.96589-0.12717-1.0279 1.42-1.792 0-2.6327l0.13245-2.892c0.25433 0.50867-0.13092 1.7293 0.83341 1.86 0.77359-0.57931-0.0647-1.3522 0.19318-2.0587h0.12694c0.2614 0.83717-0.0581 2.0592 0.71199 2.5113 0.57931-0.5122 0.32034-1.5463 0.19318-2.1857l-0.13245-0.12694c0.64289-0.64643 2.0603-0.45105 2.3181-1.6061 1.0244-0.19428 0.70117-1.543 1.2805-2.0587-0.0636 0.44861 0.0642 0.83562 0.32563 1.1535 0.57578-0.12717 0.38879-0.70515 0.57954-1.0266-0.32145-0.19428-0.004-0.83717-0.57954-0.70648 0.32145-0.96787 0.96833-2.1271 1.8656-2.4451 0.19428 0.25786 0.31967-0.19318 0.574-0.19318-0.71001-1.6743 1.2902-1.4774 0.90516-3.0246 0.44861-0.06358 0.50844 0.57756 0.83341 0.83895l0.19869-0.25942c-0.13069-1.2187-0.32673-2.5678 0.574-3.6593-0.32145-1.095 0.83895-2.8324-0.574-3.4716-1.4165 0-3.2896 0.63758-4.7026-0.13245-1.413-0.89722-0.19317-2.3155-0.89965-3.6649-2.1194-1.3529 0.38966-4.3703-2.3126-5.2709 0.0636-0.70648-0.0649-1.6116-0.38635-2.3181-1.3494-0.77359-1.3502-1.736-1.6116-3.0853-0.44861-1.1622-2.3071-0.83037-1.6006-2.699-0.32498-1.6673-3.1543-1.2262-2.5113-3.5434-0.57931-1.5401-2.829-1.1522-2.6382-2.8867-0.38503-1.3494-1.924-1.7384-3.0192-1.8655-0.44507-1.0915-0.89832-2.0605-1.9262-2.6327-0.57578-0.44861-1.6099 0.0616-2.1857-0.44706-0.26139-0.90782-0.77359-2.4512-2.1194-2.5113-0.77359-0.51573-2.4482 0.05607-2.2574-1.424-1.4801-1.8616-4.3703-1.7891-6.6838-1.2805-1.798 0.07065-3.0836 1.5465-3.7974 2.7652-1.2822 0.06712-2.4387 0.44531-3.2122 1.286-0.57578 0.57578-0.37974 1.4158-0.57399 2.0587-1.095 0.51573-2.5109 0.57623-3.0302 1.8655 0.0671 2.6387-4.1091 2.0594-3.3391 5.2104-0.70648 0.5122-1.6737 0.63538-2.0587 1.6668 1.0244 2.3844-1.7993 1.9262-2.0642 3.6042 0 0.83364 0.0711 1.9313-0.96035 2.1857-0.6429 0.19428-0.96191 0.83364-1.2198 1.413 0 1.0244 0.57931 2.3137-0.70647 2.8259-0.90076 1.2257 0.38503 3.2156-1.413 3.6042-0.96434 1.413 0.70602 3.213-1.1591 4.2445-0.38503 1.2187 0.83629 3.022-0.64024 3.6649-0.51572 1.0279-1.3534 1.3502-1.8655 2.3181h-0.32012c0.0601-0.38856-0.0647-0.778-0.5133-0.90516-0.83717-0.06358-1.356 0.57954-2.1967 0.57954-0.69941-1.413 0.7802-3.7932-1.6006-4.0512-0.51573 0-1.0319 0.45457-1.1591 0.89965-0.1307 0.45214-0.25456 1.1584 0.12694 1.5399 0.64289 0.38856 1.4138-0.31769 1.6116 0.57954 0 0.25786 0.12804 0.58041-0.0662 0.77822-0.58285 0-0.90076-0.39099-1.413-0.45811-0.57931 0.38856-0.51087 1.1628-0.32012 1.7386 0.51219 1.1586 1.4758 2.3168 2.7652 2.6382-0.51573 0-0.90141 0.44751-1.0321 0.89965-0.19074 0.1307-0.0654-1.8009-0.83895-0.64578 0.32145 1.8015-0.3837 3.3493-1.7331 4.123 0.64643-0.9714 1.4805-2.1263 1.1591-3.2179-0.90075-0.58284-1.0286 0.57555-1.7386 0.83342-0.6429-0.90429 1.4167-1.0922 0.57953-2.1801-0.32145-0.51926-0.9001-0.77314-1.3522-0.51881-0.57578 0.70648-0.37974 1.675-0.574 2.4451-0.51572 0-1.0297-0.6482-1.5454-0.13245-0.51573 0.71001 0.64422 1.8744-0.32012 1.998 0.0671-0.77006-0.0678-1.482-0.32563-2.1249-0.32145-0.06005-0.51573 0.19584-0.70648 0.25942-3.0237-6.2345-4.7574-13.245-4.1781-20.708-0.19428-3.4688 0.70823-6.7488 1.5454-9.8963 2.8259-11.9 11.377-22.447 21.536-27.911 6.5835-3.4866 14.448-5.5978 22.298-5.4695z" fill="#fff"/></g><path d="m74.484 34.516c-5.9318 0.17662-11.828 1.5602-16.652 4.0345-5.4045 2.9601-11.187 6.5626-14.786 12.087-0.32498 1.3564-0.0034 2.6371 1.0211 3.538 0.77359 2.1865-0.695 3.4103-1.9207 4.7631-0.64289 0.76652-1.4829 1.2829-2.0587 2.1801-4.0552 2.7023-5.2714 8.487-4.3106 13.567 0.06712 0.19075 0.32167 0.58683 0.57954 0.4526 0.96434-3.1475 3.2783-6.3653 6.4962-7.3298 0.25433 0.44861 0.002 1.2836-0.25942 1.7993-0.06358 2.4409-0.12671 5.5311 1.8655 7.1419 0.77359-4.9524 5.077-6.952 7.2634-11 0.70294-1.4801-0.44949-3.2159 0.06624-4.8902 1.4165-2.6352 4.1145-5.4009 6.5626-7.3298 3.9845-2.6352 7.8396-4.7523 12.661-5.3316 2.5716-0.71001 5.9163-0.58197 8.5548-0.06624 3.0203-0.06712 5.5314 1.3511 8.1632 2.2519v0.13245c3.2145 1.4094 6.7466 3.8528 8.8697 6.4244 2.7023 1.9287 0.58129 5.2081 1.4185 7.7161 1.2858 2.8932 4.1182 4.1775 5.7289 6.9432 0.64289 0.83364 0.50889 1.9914 1.0211 2.892 1.3494-1.4801 1.7432-3.7873 1.5454-6.1045 0-1.0915-0.57886-2.2528-0.25388-3.1571 4.2388 0.38856 6.2941 4.2493 7.5836 7.7215l0.38635-0.0607c0.51926-4.1187 0.38218-9.2613-2.7652-12.087-1.9287-1.6108-4.2411-2.8951-5.5303-5.0889-1.0915-1.6673 0.26204-3.3394 1.0321-4.6252 0.38503-1.8651-0.90474-3.2797-1.8656-4.3714-3.7938-3.9879-8.5506-6.8155-13.567-9.0019-4.95-2.346-10.918-3.377-16.85-3.2z"/><path d="m76.609 35.771c-6.243-0.138-12.081 1.18-17.425 3.489-4.373 1.925-8.809 5.081-11.959 8.355 0.71-0.127 0.508 0.772 0.572 1.164l0.066-0.131c1.738 0.905-0.702 1.927-0.765 2.891h0.127c0.448-0.579 1.219-1.477 1.925-1.799 0.255 0.198 0.387 0.449 0.387 0.778-1.028 1.218-2.188 2.564-3.152 3.787 1.098-0.961 2.318-2.312 3.219-3.537 0.321-0.131 0.383 0.193 0.578 0.324 0 1.861-2.381 2.636-3.084 4.498 1.028-1.155 2.308-2.509 3.47-3.791 0.322-0.127 0.45 0.197 0.641 0.32-0.127 0.389-0.126 0.837-0.447 1.158 0.385 0 0.445-0.645 0.961-0.451 0.279 0.505 0.173 0.929-0.088 1.324 0.318-0.289 0.674-0.504 1.119-0.546 0.272 0.826-0.188 1.506-0.768 2.125 0.481-0.456 1.022-0.843 1.668-1.165 0.385 0 0.315 0.443 0.315 0.772-1.088 1.155-1.858 2.379-2.953 3.467-0.128 0.452-0.705 0.904-0.387 1.424 0.71-0.258 0.642-1.159 0.967-1.739 4.818-6.107 11.83-10.676 19.802-11.767 4.632-0.52 9.392-0.196 13.567 1.478 2.321 0.58 4.183 1.544 6.242 2.766 2.444 1.611 4.882 3.602 6.684 5.785-0.128-0.579-0.834-1.219-0.385-1.738 1.286 0.328 1.475 1.672 2.185 2.506 0-1.283-1.74-2.311-1.093-3.534 0.9 0.516 1.482 1.604 1.802 2.639 0.13-0.067 0.12-0.257 0.12-0.32-0.38-1.028-1.474-1.998-1.022-3.026 1.032 0.452 1.282 1.733 1.932 2.44-0.13-1.282-1.23-2.249-1.16-3.471 1.09 0.516 1.61 1.611 2.12 2.512-0.25-1.155-1.03-2.254-1.03-3.412 1.1 0.325 1.22 1.738 1.93 2.384-0.13-1.412-1.21-2.32-1.28-3.669 1.15 0.257 1.41 1.611 2.12 2.445 0.13-1.353-1.55-1.989-1.16-3.346h0.45c0.9 0.777 0.97 1.673 1.73 2.379 0.07-0.706-0.12-1.35-0.7-1.799-0.06-0.703-1.22-1.282-0.58-1.992 0.32-0.034 0.55 0.159 0.74 0.393-1.23-1.43-2.63-2.478-4.09-3.93-1.925-1.611-4.105-2.573-5.846-3.799-4.179-1.794-8.292-3.723-13.047-4.045-0.777-0.131-1.608-0.129-2.318-0.447-0.909-0.081-1.808-0.129-2.7-0.149zm-1.734 16.327c-0.731-0.009-1.518 0.154-2.131 0.287-0.703 0.385-0.06 1.02-0.06 1.599 0.194-0.385 0.84-0.315 1.027 0.133 0.067-0.067 0.068-0.2 0.199-0.133 0.512 0 1.345 0.582 1.412-0.386 0.449-0.195 0.447 0.321 0.641 0.519 1.098 0.06-0.194-1.031 0.707-1.285-0.387-0.547-1.064-0.726-1.795-0.734zm-3.152 1.306c-0.128 0.131-0.452 0.132-0.325 0.453l0.325-0.453zm8.998 1.741c-3.925 0.13-7.975 0.191-11.762 0.318-0.646 0.063-1.678-0.123-1.738 0.58l0.578-0.127c0.77 0.445-0.382 1.158 0.127 1.281 0.258-0.448 0.325-0.896 0.834-1.027 0.452 0.254 0.068 0.906 0.326 1.287 0.388-0.258 0.122-1.029 0.832-0.828 0.064 0.251 0.324 0.57 0.066 0.828 0.385 0.707 0.578-0.448 1.034-0.127 0.127 0.131 0.38 0.257 0.38 0.447 0.516 0.262 0.387-0.384 0.772-0.32 0.706 1.159 1.418-0.828 2.125 0.32 0.449-0.897 1.67 0.449 1.801-0.9 0.576-0.127 0.254 0.519 0.572 0.646 0.774 0-0.063-1.16 0.707-1.22 0.583 0.06 0.2 1.027 0.84 1.027 0.258-0.381-0.128-0.966 0.32-1.287 0.643 0.131 0.13 0.966 0.578 1.287 0.449-0.449-0.065-1.292 0.448-1.74 0.706 0.067 0.518 0.965 0.839 1.353l0.067-1.48c0.194 0.063 0.383-0.064 0.513 0.127l-0.259-0.445zm24.049 0.769v0.002c0 0.005 0 0.01 0.01 0.016 0-0.006-0.01-0.012-0.01-0.018zm0.01 0.018c0.01 1.016 1.41 1.593 1.03 2.615-1.1 0.198-1.23-1.087-1.8-1.666 0.12 0.961 1.22 1.865 1.48 2.826-1.55 0.579-1.74-1.738-2.52-2.512 0.07 1.548 1.55 2.381 1.49 3.797-1.29-0.385-2-1.547-2.32-2.769-0.06 1.547 1.41 2.58 1.41 3.929-1.47-0.579-1.86-1.927-2.44-3.086l-0.13 0.58c-0.12 1.544 1.86 2.242 1.29 3.659-1.29-0.58-1.8-1.987-2.19-3.078l0.32 1.345c0.39 0.902 1.61 1.739 1.03 2.768-1.23-0.064-1.23-1.352-1.934-2.186 0 1.346 1.284 1.927 1.604 3.078-0.13 0.131-0.25 0.324-0.44 0.26-0.965-0.643-1.098-1.67-2.062-2.185-0.064 1.925 2.052 3.539 3.092 4.504 1.53 1.222 2.37 2.761 3.46 4.238 0.65-1.862 0.27-4.175-0.12-6.104 0.06-0.71-0.71-1.67 0.19-2.058 3.47 0.198 6.37 2.889 7.98 5.849h0.32l-0.2-3.47c-0.96-5.01-6.54-6.295-8.54-10.334zm-37.755 0.564c-0.127 0.131-0.323 0.319-0.259 0.58 0.197-0.131 0.259-0.326 0.259-0.58zm-22.439 1.275c-3.084 3.801-7.651 6.625-8.231 11.838-0.127 0.838-0.258 1.863 0.127 2.573 1.223-2.445 3.284-4.498 5.538-5.53 0.77-0.318 1.539-1.218 2.63-1.027 0.516 1.417-0.837 2.631-1.031 3.984-0.385 1.607-0.386 3.536 0.447 4.885 0.516-0.706 0.901-1.604 1.286-2.445 1.095-3.278 6.245-4.882 5.277-8.742-0.639 1.285-0.639 3.087-2.246 3.67-0.841-1.481 1.41-2.639 1.152-3.797-0.579 0.706-0.77 1.931-1.738 2.185-0.639-0.968 0.649-1.607 0.586-2.638-0.449 0.515-0.517 1.357-1.287 1.484-1.159-0.964 0.574-2.057 0.574-2.637l-0.899 1.285c-1.087 0.576-0.452-0.967-1.419-1.031-0.318-0.381 0.075-0.703 0.138-1.021h-0.326c-0.198-0.262-0.514-0.389-0.387-0.707l-0.711-0.133c-0.508-0.71 0.198-1.482 0.52-2.196zm39.045 0.114c-0.122-0.007-0.254-0.001-0.399 0.023-5.531 1.41-11.836 1.091-17.943 1.154 0 0.643 1.158-0.254 1.031 0.647l0.58-0.066c0.703 0.579-0.325 0.971 0 1.677 0.64-0.127 0.127-1.286 0.901-1.484 0.512 0.516 0.063 0.969 0.381 1.484 0.067-0.07 0.324-0.261 0.197-0.519 0.194-0.191 0.382-0.514 0.707-0.387 0.194 0.127 0.067 0.32 0.127 0.447-0.06 0.198-0.005 0.586 0.32 0.459 0.834-1.483 1.227 1.154 2.065-0.326 0.127 0.127 0.317 0.199 0.254 0.326 0.515 0.382 0.573-0.328 1.025-0.459 0.449 0.067 0.385 0.65 0.834 0.713l0.646-0.713c0.385-0.127 0.323 0.332 0.514 0.459 0.647 0.255 0.643-0.328 1.092-0.519l0.519 0.447c0.385 0.071 0.831-0.446 1.153-0.707 0.194 0.131 0.195 0.389 0.326 0.58 0.961 0.198 0.19-0.963 0.9-1.154l0.701 0.834 0.325-1.158c0.773-0.128 0.321 0.898 0.961 0.898 0.067-0.576-0.58-1.157 0-1.605 0.9 0.063 0.582 1.416 1.158 1.738 0.198-0.576-0.449-1.286 0.066-1.865 0.77 0.063 0.769 1.023 1.094 1.412 0.064-0.452-0.26-0.701-0.26-1.086-0.187-0.262-0.129-0.712 0.26-0.906l0.641 0.58c0.325-0.064 0.193-0.327 0.451-0.327 0.516 0.195 0.705 0.776 1.094 1.161v-0.508c-0.507-0.451-0.866-1.2-1.721-1.25zm-19.049 1.051v0.326c0.127-0.127 0.516-0.005 0.393-0.326h-0.393zm19.484 0.326l0.127 0.705v-0.324l-0.127-0.381zm-21.283 0.832v0.58h0.067v-0.58h-0.067zm1.094 0c0 0.254-0.384 0.64-0.066 0.767l0.193-0.767h-0.127zm1.098 0.193l-0.266 0.574h0.266v-0.574zm1.027 0.254c-0.258 0.194-0.578 0.709-0.133 0.779 0.131-0.258 0.26-0.458 0.133-0.779zm22.568 0.453c-2.956-0.131-5.146 1.16-8.17 1.16-0.579 0-1.03-0.004-1.412 0.254-5.726 0-10.229 0.898-15.884 0.065-0.58-0.131-1.417-0.258-1.866 0.127 0.449 0.127 0.649 0.648 0.448 1.16l0.584-0.901c1.54-0.385-0.003 1.156 0.513 1.739 0.127-0.516 0.132-1.036 0.453-1.424 0.961 0.07 0.19 0.972 0.448 1.611 0.512-0.127 0.383-0.959 0.771-1.351 0.968 0.063 0.13 1.289 0.713 1.611 0.449-0.258 0.126-0.772 0.26-1.164 0.123-0.187 0.316-0.254 0.574-0.254 0.321 0.385-0.003 0.77 0.187 1.158 0.449 0.067 0.259-0.637 0.711-0.771 0.576 0.067 0.253 0.709 0.702 1.031 0.388-0.191 0.136-0.964 0.652-1.031 0.71 0.194 0.06 0.9 0.572 1.158 0.579 0.131 0.578-0.514 1.094-0.514 0.449 1.095 1.162 0.194 1.678 0.254 0.19 0.064 0.383 0.522 0.701 0.32 0.833-1.024 1.414 0.523 2.445 0 0.389-0.703 1.153-0.254 1.799-0.187 0.643-0.964 1.672 0.578 2.191-0.711 0.255 0.194 0.443 0.642 0.828 0.451 0.322 0 0.323-0.387 0.454-0.578 0.321-0.127 0.387 0.256 0.578 0.391 0.579 0.318 0.839-0.586 1.033-0.971 0.516 0-0.001 0.647 0.447 0.707 0.77 0.064 0.511-1.026 0.705-1.475 0.968-0.063 0.063 1.221 0.84 1.348 0.834-0.254-0.069-1.032 0.574-1.48 0.322 0.194 0.45 0.769 0.58 1.154 1.092 0.198 0.26-1.153 0.645-1.602h0.127c0.449 0.195 0.387 0.643 0.387 1.028 0.127 0.19 0.131 0.645 0.453 0.574 0.639-0.449 0.127-1.153 0.06-1.729 0.968-0.579 0.512 1.154 1.285 1.282 0.195-0.449 0.195-1.154 0-1.606 0.707-0.636 0.775 0.835 1.288 0.899 0.063-0.703-0.638-1.026-0.448-1.733zm-28.039 1.992v0.895l0.586-0.895h-0.586zm29.772 1.094c-1.35 0.449-2.825 0.382-4.047 1.092-8.941 1.219-17.17 1.478-26.365 0.64 0 0.195-0.131 0.581 0.127 0.581v-0.127c0.19-0.06 0.388-0.257 0.646-0.194l0.254 0.772v-0.065c0.198-0.127 0.26-0.443 0.578-0.386 0.449 0.519 0 1.159 0 1.738 0.127 0.127 0.257 0.323 0.447 0.26 0.195-0.52 0.003-1.357 0.713-1.42 0.195 0.321 0.057 0.771 0.127 1.16 0.064 0.191 0.13 0.584 0.451 0.453 0.191-0.127 0.063-0.452 0.063-0.646 0.194-0.255 0.194-0.575 0.512-0.575 0.067 0.06 0.257 0.126 0.193 0.321-0.194 0.318 0.004 0.769 0.266 1.027 0.254-0.194 0.379-0.84 0.767-1.027 0.449 0.187 0.19 0.579 0.254 0.9 0.385 0.643 0.513-0.193 0.899-0.193 0.257 0.127 0.451 0.638 0.839 0.447 0-0.258 0.257-0.386 0.321-0.58l0.832 0.773c0.194-0.19 0.52-0.383 0.58-0.64 0.134 0 0.326-0.131 0.453 0.127 0.067 0.254 0.191 0.38 0.58 0.32 0.576-0.77 0.966 0.518 1.605 0.193 0.71-1.158 1.8 0.902 2.379-0.447 0.965 1.477 1.738-0.901 2.766 0.254 0.519 0.254 0.837-1.024 1.158-0.254 0.71 0.706 1.033-0.837 1.606 0 0.515 0.191 0.903-0.131 1.093-0.646 0.389-0.195 0.259 0.322 0.58 0.453 0.707 0.321 0.323-0.58 0.899-0.707 0.325 0 0.326 0.383 0.453 0.574 1.095 0.321 0.251-0.966 0.834-1.287 0.639 0.063 0.319 1.096 0.898 1.16 0.258-0.322 0.069-0.839 0.454-1.16 0.579 0 0.254 0.712 0.707 0.967 0.575-0.195 0.254-1.093 0.707-1.545 0.254 0.261 0.511 0.582 0.451 1.031h0.447l0.188-1.485c0.904 0.131 0.198 1.482 1.166 1.291 0.194-0.642-0.258-1.289 0.127-1.738 0.897 0.064 0.259 1.221 0.898 1.479 0.71-0.516-0.32-1.346 0.514-1.739 0.579 0.325 0.134 1.159 0.646 1.42l0.127-0.132c0.127-0.318 0.258-0.893-0.127-1.155 0-0.254-0.004-0.643 0.381-0.707 0.643 0.385 0.581 1.098 0.771 1.547l0.133-0.84c-0.321-0.448-0.581-1.352-1.351-1.285zm-30.676 2.764c-0.382 0.194-0.697 1.16-0.121 1.16l0.121-1.16zm0.904 0.26v1.027h0.133l0.127-1.027h-0.26zm32.801 0.21c-0.247 0.017-0.517 0.081-0.771 0.051-9.39 2.83-20.451 3.143-30.872 2.504-1.667 0.187-3.207-0.836-4.691-0.451-0.124 0.579-1.154 1.289-0.447 2.059-0.131-0.64 0.195-1.346 0.58-1.932 1.158 0.067 0.133 1.412 0.447 2.059 0.777-0.064-0.068-1.224 0.705-1.475 0.194-0.134 0.323 0.06 0.453 0.187 0.064 0.318-0.127 0.516-0.127 0.834 0.258 0.131-0.065 0.843 0.448 0.653 0.067-0.198-0.058-0.39-0.121-0.58 0.19-0.265 0.381-1.032 0.834-0.774l0.253 1.481c0.385-0.258 0.066-1.096 0.645-1.227l0.254 0.193c0 0.255-0.003 0.517-0.127 0.708 0.124 0.257 0.256 0.516 0.574 0.58 0.258-0.513-0.124-1.612 0.84-1.481 0.198 0.322 0.066 0.838 0.066 1.227 0.516 0 0.446-0.779 0.965-0.907 0.385 0.195 0.128 0.582 0.188 0.907 0.067 0.19 0.322 0.572 0.58 0.445-0.064-0.385 0.064-0.771 0.453-0.898l0.381 1.025c0.583 0.064 0.194-0.833 0.773-0.9 0.512 0.197-0.003 0.835 0.446 1.033l0.839-0.834c0.445 0.191 0.063 0.703 0.321 0.961 0.318-0.127 0.516-0.386 0.707-0.707 0.452-0.064 0.447 0.449 0.705 0.707 0.643 0.254 0.39-0.708 1.033-0.453 0.131 0.067 0.19 0.258 0.254 0.453 0.576 0.13 0.642-0.259 1.098-0.453 0.127 0.127 0.38 0.258 0.38 0.453 0.647 0.452 0.712-0.259 1.288-0.453 0 0.257 0.324 0.128 0.324 0.453 0.576 0.194 1.03-0.326 1.347-0.453 0.707 1.48 1.737-1.087 2.44 0.453 0.388-1.805 1.612 0.773 2.318-0.707 0.58 0.837 1.286-0.255 1.865 0.254 0.771 0.325 0.709-0.577 1.225-0.834 0.254 0.257 0.516 0.58 0.834 0.58l0.58-0.905c0.445 0 0.126 0.52 0.574 0.651 0.77 0.381 0.323-0.583 0.772-0.778 0.452-0.07 0.391 0.451 0.713 0.579 0.766 0.197 0.384-0.648 0.765-0.899 0.58-0.194 0.19 0.451 0.575 0.518 0.71 0 0.267-0.9 0.712-1.225 0.58 0.258 0.258 1.286 1.028 0.9 0.067-0.388 0.13-0.771 0.258-1.16 0.643 0.131 0.126 1.101 0.9 1.034 0.385-0.318 0.258-0.969 0.127-1.354 0.774-0.576 0.455 1.033 1.031 1.287 0.191-0.512 0.58-0.902 0.58-1.414 0.449 0.191 0.319 0.839 0.707 1.16 0.77-0.65-0.126-1.679 0.327-2.318 0.702 0.127 0.573 1.09 0.958 1.605 1.092-0.452-0.191-1.546 0.321-2.185-0.158-0.223-0.383-0.252-0.629-0.237h-0.006zm1.088 0.497l0.447 1.027v-0.58l-0.447-0.447zm0.986 2.734c-0.089-0.007-0.182 0-0.279 0.031-5.722 2.06-12.092 2.568-18.457 3.084-6.365 0.512-12.025 0.064-18.391-0.127-0.127 0.385 0.195 0.833-0.254 1.028-0.257 0.321 0 0.839 0.254 0.966 0.067-0.643 0.262-1.158 0.651-1.607 1.091 0.067-0.131 0.897 0.254 1.607 0.646 0.516 0.257-1.033 1.027-1.16 0.194 0.322 0.066 0.839 0.133 1.287 1.342 1.159 0.124-1.48 1.279-1.668 0.714 0.449 0.061 1.089 0.061 1.668 0.067 0.195 0.328 0.515 0.586 0.451 0-0.579-0.003-1.416 0.513-1.865 0.834 0.064 0.192 1.219 0.514 1.735h0.258c0.063-0.255 0.321-0.449 0.254-0.834 1.098-1.095 0.194 0.898 0.773 1.152 0.643 0.131 0.455-0.767 0.844-1.152 0.639 0.194 0.058 1.027 0.574 1.285 0.576 0.063 0.192-0.772 0.768-0.772 0.388 0.195 0.326 0.514 0.453 0.772 0.512 0.063 0.449-0.515 0.834-0.705l0.771 0.832 0.707-0.578c0.449-0.064 0.386 0.451 0.707 0.578 0.516-0.064 0.579-0.511 1.031-0.705 0.325 0.194 0.259 0.514 0.581 0.705 0.575 0.194 0.894-0.321 1.279-0.578l0.459 0.451c0.516 0.254 0.706-0.32 1.027-0.578 0.191 0.321 0.447 0.318 0.705 0.445 0.774-1.346 1.416 0.777 2.313-0.445 0.452 1.028 0.965-0.707 1.48 0 0.449 0.448 0.768-0.254 1.153-0.321 0.194 0.449 0.902 0.516 1.16 0.127 0.321-0.639 0.646 0.13 1.158 0.194 0.388-0.195 0.321-0.577 0.773-0.707 0.707 1.091 0.833-0.383 1.412-0.453 0.258 0.194 0.323 0.455 0.454 0.712 0.385 0 0.707-0.387 0.767-0.839 0.449 0.127 0.132 0.837 0.711 0.58 0.385-0.128 0.253-0.709 0.447-1.034 0.453-0.063 0.453 0.453 0.58 0.707 0.647 0 0.195-1.027 0.838-1.154l0.448 0.834c0.063-0.06 0.129-0.19 0.193-0.127 0.131-0.448-0.192-1.094 0.26-1.412 0.576 0.318 0.383 0.964 0.574 1.412 0.643 0 0.263-0.83 0.326-1.279 0.837-0.71 0.38 0.765 0.832 1.019 0.647-0.063 0.19-0.96 0.32-1.472 0.965-0.707 0.452 0.958 0.84 1.152 0.449-0.385 0.384-0.963 0.575-1.478 0.452 0.127 0.324 0.775 0.451 1.16 0.773-0.258 0.068-1.092 0.453-1.668 0.837 0 0.258 1.025 0.707 1.414 0.646-0.322 0.193-1.038 0.193-1.486 0.901-0.707 0.453 0.906 1.092 1.033 0.452-0.58-0.511-1.417 0.326-1.739v-0.253c-0.244-0.048-0.483-0.203-0.752-0.225zm-41.756 2.924c-0.257 0-0.504 0.448-0.254 0.638l0.254-0.638zm43.215 0.318l0.002 0.002c-13.437 4.242-28.875 5.086-43.344 2.443-0.063 0.516-0.769 1.353-0.193 2.059 0.322-0.512 0.387-1.093 0.772-1.545 0.964 0.258 0.063 1.353 0.38 1.865h0.2c-0.128-0.512 0.198-0.903 0.453-1.285 0.837 0.382-0.068 1.028 0.381 1.551 0.84 0.636 0.265-1.099 0.904-1.424 0.706 0.194-0.002 1.284 0.574 1.733 0.452-0.509-0.001-1.479 0.84-1.733 0.579 0.576-0.262 1.222 0.193 1.865h0.325c-0.068-0.77 0.125-1.476 0.701-1.865 0.71 0.576-0.388 1.477 0.453 1.865-0.064-0.643 0.191-1.159 0.58-1.611 1.095 0.321-0.132 1.48 0.578 1.932 0.385-0.576 0.191-1.475 0.834-1.793 0.449 0.381 0.124 1.154 0.188 1.666 0.9 0.579 0.204-1.09 0.97-1.352 0.901 0.191 0.129 1.157 0.641 1.606 0.385-0.449 0.263-1.342 0.973-1.342 0.19 0.385 0.061 0.893 0.121 1.342 0.381-0.131 0.581-0.706 0.644-1.155 0.834 0.195 0.322 1.226 0.834 1.481 0.452-0.191 0.068-0.709 0.58-0.906 0.385 0.264 0.453 0.651 0.453 1.033h0.319c0.123-0.191 0.253-0.449 0.381-0.707 0.515-0.06 0.327 0.58 0.652 0.707 0.448 0.325 0.766-0.132 1.088-0.453l0.578 0.584c0.449 0.445 0.577-0.452 1.033-0.452l0.447 0.452c0.453 0.512 0.71-0.452 1.159-0.325 0.9 1.413 1.221-0.898 2.185 0.194 0.258 0.134 0.773-0.005 0.901-0.453 0.385 0 0.385 0.262 0.58 0.453 0.515 0.067 0.963 0.062 1.285-0.453 0.321 0.19 0.319 0.647 0.767 0.453 0.389-0.06 0.39-0.449 0.711-0.707 0.382 0 0.38 0.256 0.574 0.513 0.647 0.064 0.839-0.188 1.288-0.513 0.579 1.158 1.226-0.636 1.738 0 0.452 0.198 0.837-0.196 1.219-0.453 0.067 0.321 0.386 0.198 0.386 0.453 0.77 0.325 0.325-0.639 0.774-0.901 0.516-0.063 0.326 0.513 0.711 0.707 0.579 0 0.512-0.642 0.707-1.027 0.576-0.131 0.25 0.58 0.635 0.768 0.582-0.064 0.518-0.834 0.712-1.215 0.258 0.318 0.451 0.772 0.706 1.033l0.773-0.717c0.194 0.131 0.193 0.261 0.26 0.451 1.282 0.064 0.383-1.158 0.832-1.865 0.579 0.258 0.322 1.033 0.58 1.545 1.091-0.131 0.19-1.482 0.773-1.998 0.258 0.325 0.578 0.835 0.448 1.414 1.349 0.714 0.258-1.411 0.964-1.859 0.513 0.321 0.323 0.9 0.58 1.412 0.898-0.255-0.001-1.217 0.448-1.86 0.964 0.06 0.452 1.411 1.031 1.86 0.579-0.707-0.192-1.67 0.193-2.313 1.028 0.064 0.515 1.157 0.967 1.606 0.449-0.512 0.063-1.54 0.32-1.992 0.513 0.388 0.575 1.223 0.893 1.671 0.261-0.127 0.133-0.383 0.133-0.578 0.063-0.579-0.577-1.35 0.133-1.668-0.067 0-0.133-0.068-0.133-0.199h-0.768zm1.219 3.795c-5.461 1.477-11.057 2.764-16.906 3.344-9.386 1.088-19.678 0.576-29-0.905-0.127 0.643-0.772 1.286-0.387 1.932 0.131-0.646 0.193-1.413 0.967-1.738 0.897 0.579-0.197 1.219-0.133 1.865 0.131 0.127 0.129 0.451 0.447 0.324 0.134-0.643 0.076-1.544 0.907-1.738 0.063 0.261 0.448 0.383 0.126 0.574-0.13 0.519-0.255 1.417 0.381 1.612l0.321-1.475c1.218-0.516-0.06 1.282 0.707 1.865 0.512-0.646 0.263-1.931 1.16-2.058 0.318 0.579-0.255 1.415 0.066 2.185h0.254c0.265-0.381 0.264-0.9 0.264-1.412 1.734-1.741 0.124 1.41 1.021 1.738 0.382-0.65 0.004-1.61 0.774-2.058 0.777 0.512 0 1.219 0.258 1.925 0.967 0.583-0.064-1.351 0.9-1.478 0.452 0.449 0.32 1.095 0.32 1.738h0.52l0.064-1.031c1.222-1.155 0 1.154 1.088 1.352 0-0.068 0.069-0.127 0.199-0.127 0-0.516-0.001-1.158 0.448-1.352 0.643 0.452-0.26 1.03 0.386 1.479 0.77 0.321 0.508-0.646 0.893-0.901 0.452 0.194 0.328 0.769 0.713 1.154 0.516 0 0.324-1.028 1.027-0.834 0.322 0.135 0.128 0.517 0.319 0.708 0.512 0.197 0.711-0.384 1.033-0.448 0.512 1.48 1.539-0.515 2.185 0.647 0.643 0.19 0.706-0.266 1.155-0.326 0.519 1.027 1.737-0.063 2.316 0.326 0.646 0.123 0.835-0.135 1.287-0.453 0.579 0.77 1.156 0.19 1.799 0 0.131-0.067 0.323 0.13 0.26 0.254 0.643 0.197 0.966-0.321 1.478-0.321 0.516 0.837 1.286-0.127 1.735-0.127 0.063 0.064 0.126 0.127 0.126 0.194 0.774 0.77 1.354-0.968 1.866 0 0.773 0.318 0.646-0.453 1.158-0.647 0.452-0.254 0.321 0.33 0.646 0.453 0.707 0.195 0.768-0.578 1.026-0.967 0.452 0.322 0.514 0.775 0.967 0.707 0.512-0.063 0.318-0.64 0.707-0.898 0.639-0.127 0.192 0.833 0.898 0.578 0.321-0.198 0.384-0.582 0.32-0.971 0.135-0.06 0.196-0.254 0.387-0.187 0.067 0.258 0.321 0.45 0.193 0.771h0.387c0.837 0.064 0.193-0.897 0.574-1.218 0.901-0.258 0.001 0.963 0.778 1.027 0.448-0.318 0.123-0.838 0.254-1.287 0.9-0.837 0.451 0.894 1.027 0.894 0.321-0.445-0.192-1.28 0.451-1.601 0.322 0.452 0.323 0.965 0.453 1.414 0.58-0.258 0.319-1.222 0.707-1.734 0.195 0.445 0.449 0.895 0.707 1.347 0.58-0.512-0.322-1.349 0.321-1.931 0.773 0.257 0.447 1.162 0.705 1.738h0.326c0.254-0.576-0.001-1.413 0.254-1.992 0.516 0.258 0.452 1.027 0.773 1.539 0.58-0.449-0.128-1.413 0.578-1.6 0.643 0.318 0.068 1.09 0.58 1.479 0.965-0.58-0.383-1.481 0.26-2.319 0.64 0.262 0.574 1.346 0.899 1.866 0.575-0.77-0.195-1.797 0.254-2.571 0.833 0.198 0.582 1.217 0.773 1.86 0.452-0.191 0.133-0.839 0.26-1.287l-0.971-0.893 0.004-0.004zm1.547 0.324l0.32 0.705v-0.32l-0.32-0.385zm0.569 3.145v0.002c-2.122 0.385-3.858 1.738-6.108 1.738-2.703 0.77-5.523 1.158-8.289 1.678-1.286 0.385-2.767 0.253-4.053 0.574-6.302 0.512-12.861 1.093-18.969 0.387-4.182-0.255-7.974-0.836-11.767-1.606 0.646 0.647-0.77 1.222-0.127 2.059 0.127-0.516 0.195-1.029 0.58-1.414 1.738-0.452-0.517 1.411 0.578 2.181 0.191-0.194 0.063-0.579 0.127-0.9 0.127-0.449 0.319-1.218 0.894-1.281l0.139 2.312c0.382-0.576 0.061-1.804 1.152-1.804l0.123 2.191c0.325-0.71 0.199-1.542 0.778-2.125 1.155 0.385-0.195 1.342 0.254 2.18h0.199c0.131-0.636 0.189-1.474 0.832-1.795 0.643 0.706-0.386 1.736 0.447 2.379 0.067 0 0.132-0.127 0.266-0.067-0.067-0.833 0.001-1.795 0.64-2.113l0.254 1.859h0.127c0.382-0.448-0.06-1.8 0.905-1.478 0.127 0.643-0.256 1.604 0.32 1.926 0.191-0.643 0.061-1.344 0.707-1.799 0.968 0.194 0.066 1.221 0.32 1.931h0.26c0.254-0.257 0.324-0.643 0.324-1.025 1.41-0.968 0.123 1.346 1.155 1.346 0.445-0.322 0.067-1.219 0.834-1.219 0.452 0.254 0.066 0.897 0.32 1.219h0.578v-0.199c0.385-0.188 0.064-0.963 0.707-0.702 0.131 0.385 0.263 0.775 0.326 1.16 0.965 0.382 0.639-0.711 1.285-0.906 0.318 0.262 0.32 0.646 0.448 1.028 0.71 0.321 0.832-0.641 1.412-0.58l0.326 0.58c0.706 0.515 0.704-0.51 1.287-0.58l0.768 0.712c0.519-0.063 0.457-0.9 1.037-0.712 0.254 1.677 1.603-0.315 2.115 0.458 0.646 0.322 1.352-0.129 1.805-0.259 0.706 0.833 1.609-0.067 2.185-0.067v0.067c0.322 0 0.707 0.512 0.965 0 0.194-0.198 0.7-0.385 0.895 0 0.579 0.19 0.969-0.128 1.16-0.58 0.385-0.389 0.383 0.257 0.705 0.381 0.576 0.328 0.644-0.573 1.226-0.573l0.387 0.319c0.639 0.254 0.704-0.386 1.152-0.711l0.454 0.519c0.71 0.325 0.515-0.701 1.158-0.574l0.453 0.572c0.576-0.127 0.379-0.834 0.894-1.092 0.258 0.195 0.385 0.453 0.385 0.707 0.774 0.195 0.519-0.642 0.901-1.027 0.452-0.063 0.452 0.453 0.58 0.711 1.028 0.187 0.449-0.967 0.898-1.412 0.579 0.06 0.386 0.762 0.58 1.154 1.028 0.127 0.448-1.155 0.901-1.738 0.773 0.385-0.133 1.027 0.517 1.412 0.06-0.127 0.19-0.127 0.32-0.127 0.255-0.449 0.254-1.092 0.254-1.738 1.35-0.837 0.13 1.418 1.028 1.545 0.448-0.509 0.068-1.417 0.326-1.992 0.773 0.187 0.451 1.159 0.705 1.738 0.579-0.325 0.194-1.61 0.773-2.059 0.707 0.325 0.196 1.157 0.514 1.606 0.901-0.127 0.065-1.543 0.645-2.059 0.77 0.071 0.381 1.219 0.834 1.608 0.448-0.449 0.123-1.159 0.187-1.735 1.099-1.158 0.326 1.093 1.1 1.227 0.706-0.583-0.125-1.424 0.324-2.198 0.576 0.135 0.704 0.905 0.767 1.424 0.901-0.452-0.257-1.546 0.581-2.058 0.45 0.254 0.51 0.639 0.57 1.027v-0.834l-0.64-0.779zm-50.018 3.092l-0.327 0.834 0.581-0.834h-0.254zm50.748 1.046c-0.15-0.02-0.3-0.018-0.46 0.002-1.032 0.135-2.197 1.063-3.158 1.264-2.448 0.325-4.625 1.157-7.009 1.479-4.048 1.155-8.163 1.091-12.342 1.865 0.191 0.77 1.089 1.29 0.898 2.187 0.128 0.389 0.319 0.839 0.834 0.772 0.576-0.512 0.898-0.191 1.608-0.061 0.576-1.289 1.606 0.582 2.185-0.711 0.191-0.06 0.451-0.003 0.578 0.192 0.771 0.388 0.708-0.575 1.288-0.639l0.451 0.447c0.833 0.322 0.451-0.767 1.027-0.834 0.127 0.195 0.453 0.384 0.453 0.575 0.897 0.321 0.383-0.83 1.026-0.901 0.515 0.071 0.258 0.519 0.707 0.713 0.706-0.131 0.191-0.905 0.707-1.166 0.579-0.127 0.261 0.585 0.646 0.779 0.774 0 0.573-0.905 0.965-1.353 0.579 0 0.124 0.706 0.58 0.9 0.512-0.452 0.189-1.29 0.772-1.611 0.314 0.388 0.316 0.902 0.447 1.418l0.381-0.133c0.13-0.639 0.135-1.281 0.453-1.853 0.646 0.381 0.131 1.216 0.58 1.605 0.71-0.456-0.069-1.677 0.705-2.059 0.71 0.382 0.004 1.344 0.58 1.86 0.901-0.382 0.067-1.606 0.647-2.186 0.575 0.325 0.383 1.226 0.574 1.805 0.71-0.389 0.062-1.479 0.578-2.059 0.904 0.064 0.258 1.157 0.58 1.602 1.095-0.254-0.13-1.404 0.58-2.047 0.706 0.127 0.516 0.963 0.707 1.479 0.842-0.583-0.258-1.482 0.572-2.065 0.39 0.452 0.65 1.03 0.72 1.479 0.45-0.516-0.07-1.544 0.45-2.053 0.89 0 0.38 1.091 0.64 1.342 0.45-0.188 0.19-0.767 0.25-1.088-0.34-0.615-0.75-0.884-1.2-0.946zm4.69 0.979c-0.54 0.016-1.17 0.164-1.62 0.039-1.41 0.445-1.1 2.438-2.31 3.014-3.215 1.286-6.502 2.635-10.169 2.896-3.73 0.834-7.586 1.41-11.507 1.795-1.608 0.325-1.928-1.346-3.217-1.607-1.862-0.64-2.958 1.097-4.113 1.867-4.179 0.512-9.388-0.001-13.825-0.453-3.793-0.897-8.615-0.128-10.996-3.473-2.25 1.48-3.852 4.891-6.17 6.883v0.514c0.449 0.254 1.157-0.063 1.606 0.199l45.91 0.127 10.48-0.127c2.571-3.409 4.691-7.398 7.071-10.934-0.13-0.64-0.59-0.756-1.14-0.74zm-54.991 1.637c-0.258 0.77-0.836 1.669-0.447 2.439 0.127-0.703 0.191-1.537 0.834-1.926 0.646 0.58-0.386 1.93 0.451 2.506-0.064-0.576 0.127-0.961 0.127-1.48 1.734-2.123-0.126 1.547 1.16 1.738-0.194-0.901 0.255-1.476 0.453-2.186 0.187-0.063 0.444-0.003 0.578 0.188-0.067 0.258 0.061 0.522-0.137 0.713-0.381 0.643 0.134 1.286 0.452 1.738 0.194-0.77 0.064-1.802 0.58-2.318 0.77 0.516-0.067 1.866 0.707 2.318-0.127-0.77 0.131-1.415 0.707-1.871 0.325 0.646 0.32 1.485 0.451 2.191l0.127-0.132c-0.064-0.191 0.064-0.447-0.127-0.575 0.321-0.448 0.194-1.351 0.9-1.351l0.127 2.058c0.134 0.128 0.259 0.321 0.453 0.321l0.127-1.225c1.286-1.543 0.197 1.419 1.352 1.225 0.124-0.449-0.256-1.09 0.387-1.352 0.904 0.071 0.128 1.29 0.64 1.738 0.707 0.258 0.451-0.769 0.832-1.027 0.837 0.064 0.326 1.221 1.039 1.348 0.576-0.127 0.311-0.706 0.7-1.028 0.579 0 0.262 0.77 0.707 1.028 0.519 0.194 0.519-0.449 0.773-0.707 0.512-0.06 0.326 0.58 0.707 0.707 0.579 0.127 0.773-0.192 1.158-0.453l0.58 0.707c0.513 0.063 0.776-0.64 1.225-0.707 0.321 0.19 0.321 0.449 0.508 0.707 0.646 0.194 0.903-0.319 1.224-0.707l0.707 0.707c0.838 0.321 0.578-0.898 1.288-0.707 0.063 0.067 0.126 0.135 0.126 0.265h0.319c0.321-0.9 0.586-1.8 0.9-2.705-7.969 0-15.298-0.582-22.695-2.185zm56.581 0c-1.74 2.377-3.28 5.019-4.95 7.396-0.45 1.35-1.67 2.442-1.73 3.791 2.05-2.381 3.66-5.141 5.27-7.844 0.45-1.091 1.73-1.994 1.41-3.343zm-58.189 0.959v1.033h0.133v-1.033h-0.133zm-11.701 7.338l-0.127 0.127 0.254 0.259c0 0.258 0.323 0.577 0.453 0.453l-0.58-0.839zm16.385 2.998c-0.056-0.002-0.116 0.007-0.182 0.023 0.064 0.258-0.128 0.644 0.264 0.772 0.124-0.195 0.444-0.26 0.317-0.514-0.099-0.194-0.23-0.278-0.399-0.281zm-2.726 0.017c-0.073-0.008-0.156 0.004-0.221 0.004v0.58h0.26c0.194-0.067 0.069-0.322 0.132-0.453-0.031-0.095-0.099-0.123-0.171-0.131zm10.16 0c-0.026-0.011-0.056-0.01-0.088 0.006 0 0.321-0.134 0.647 0.314 0.711v-0.453c-0.095-0.098-0.149-0.23-0.226-0.264zm32.373 0c-0.035-0.011-0.076-0.01-0.123 0.006v0.772h0.326v-0.514c-0.048-0.098-0.1-0.23-0.203-0.264zm-36.651 0.004c-0.047-0.026-0.108-0.03-0.187 0.002v0.578c0.131-0.067 0.322 0.068 0.453-0.127-0.098-0.098-0.124-0.374-0.266-0.453zm-10.341 0.002c-0.071 0.258 0.002 0.772 0.447 0.578v-0.578h-0.447zm30.857 0c-0.191 0.127-0.254 0.197-0.254 0.451-0.127 0.506 0.323 0.259 0.514 0.456 0.063-0.133 0.257-0.135 0.193-0.329-0.131-0.198-0.132-0.642-0.453-0.578zm11.768 0l-0.254 0.258c0.063 0.254-0.131 0.649 0.254 0.769 0.134 0.07 0.195-0.12 0.326-0.255 0.063-0.322-0.069-0.574-0.326-0.772zm1.224 0l-0.064 0.907h0.578c-0.064-0.395 0.133-0.971-0.514-0.907zm-45.019 0.004c-0.055 0.004-0.12 0.043-0.184 0.123 0 0.131-0.124 0.384 0.066 0.451 0.128 0 0.318 0 0.381-0.127 0-0.191-0.101-0.46-0.263-0.447zm9.927 0.018c-0.112 0.04-0.209 0.171-0.209 0.298 0.131 0.191 0.323 0.258 0.514 0.258v-0.318c-0.064-0.226-0.192-0.279-0.305-0.238zm36.612 0.005c-0.086 0.03-0.168 0.104-0.233 0.233 0.195 0.254 0.061 0.967 0.58 0.767 0.127-0.12 0.191-0.253 0.254-0.447-0.047-0.339-0.345-0.641-0.601-0.553zm-11.106 0.049c-0.048-0.011-0.106 0.003-0.187 0.051-0.127 0.194-0.258 0.647 0.127 0.78 0.258 0.05 0.193-0.327 0.324-0.454-0.098-0.098-0.121-0.343-0.264-0.377zm-1.662 0.018c-0.041-0.007-0.085 0.001-0.133 0.033v0.78h0.321c0.257-0.133 0.127-0.396 0.127-0.587-0.098-0.047-0.193-0.205-0.315-0.226zm-9.166 0.015c-0.04-0.001-0.085 0.008-0.129 0.024-0.176 0.065-0.356 0.256-0.291 0.447 0.127 0.194 0.388 0.257 0.578 0.193v-0.32c0.049-0.242-0.037-0.338-0.158-0.344zm-26.121 0.004c-0.026-0.005-0.054-0.001-0.086 0.014l0.133 0.326c0.067-0.07 0.133-0.13 0.133-0.193-0.051-0.045-0.103-0.132-0.18-0.147zm16.014 0.008c-0.073-0.009-0.154 0.006-0.221 0.006 0 0.194 0.068 0.584 0.393 0.453v-0.32c-0.034-0.096-0.099-0.13-0.172-0.139zm4.259 0.002c-0.035-0.01-0.071-0.011-0.103 0.004-0.127 0.131-0.127 0.583 0.127 0.646 0.198-0.063 0.068-0.262 0.139-0.453 0.047-0.047-0.055-0.166-0.163-0.197zm31.918 0c-0.035-0.01-0.076-0.011-0.125 0.004l0.127 0.646c0.131-0.127 0.324-0.262 0.26-0.453-0.095-0.047-0.155-0.166-0.262-0.197zm-1.136 0.002c-0.036-0.012-0.085-0.013-0.149 0.002v0.646h0.254v-0.32c0-0.146 0.002-0.29-0.105-0.328zm-52.483 0.002v0.326h0.061v-0.326h-0.061zm5.719 0c-0.258 0.131 0 0.326 0.127 0.453v-0.453h-0.127zm4.178 0v0.453h0.193v-0.32c-0.131 0-0.193-0.062-0.193-0.133zm5.976 0v0.453h0.073c0-0.127 0.122-0.513-0.073-0.453zm17.239 0v0.646h0.447v-0.32c0.063-0.254-0.257-0.195-0.447-0.326zm6.689 0v0.646h0.127v-0.646h-0.127zm1.412 0l-0.133 0.646h0.188c0.261-0.063 0.133-0.262 0.133-0.453 0.13-0.194-0.188-0.062-0.188-0.193zm3.986 0v0.646h0.254v-0.646h-0.254zm9.581 0v0.584h0.126c0.188-0.258-0.063-0.39-0.126-0.584zm-25.811 0.119c-0.035-0.005-0.072-0.001-0.104 0.014v0.513h0.254v-0.32c0.051-0.098-0.045-0.192-0.15-0.207zm-4.529 0.008c-0.164 0.078-0.235 0.361 0.056 0.459 0.195-0.131 0.064-0.33 0.127-0.453-0.065-0.033-0.129-0.032-0.183-0.006zm-4.323 0.006l0.133 0.453c0.06-0.064 0.13-0.2 0.194-0.133v-0.32h-0.327zm2.766 0c-0.064 0.194 0.135 0.387 0.326 0.32v-0.32h-0.326zm2.963 0v0.32h0.127v-0.32h-0.127zm4.494 0v0.453h0.133v-0.453h-0.133zm1.418 0c-0.254 0.194 0.002 0.513 0.133 0.513-0.067-0.194 0.061-0.45-0.133-0.513zm10.668 0v0.513h0.393c0.19-0.063 0.063-0.319 0.127-0.513h-0.52zm1.547 0v0.453h0.066v-0.453h-0.066zm11.844 0.008l0.125 0.502 0.123-0.057c0.061-0.25-0.172-0.434-0.248-0.445zm-54.604 1.789l0.393 1.03v-0.64l-0.393-0.39zm50.928 0.45c-0.046 0.42 0.473 0.77 0.695 0.93-0.194-0.26-0.296-0.76-0.695-0.93zm-48.152 1.61c-0.703 0-0.768 0.71-1.153 1.1 0.512-0.14 0.898-0.65 1.153-1.1zm48.162 0.7l1.025 1.16c-0.191-0.45-0.51-1.03-1.025-1.16zm-48.483 1.42l-0.453 0.45c0.322 0.13 0.323-0.32 0.453-0.45zm-3.664 0.06l-0.26 0.39c0.128 0.06 0.194 0.26 0.325 0.19 0-0.19 0.129-0.45-0.065-0.58z" transform="translate(0 -.0022354)" fill="#fff"/><path d="m74.627 12.916l-0.527 0.049c-0.11 0.222-0.488 0.275-0.756 0.293l-6.938 0.58c-0.268 0.025-0.646 0.045-0.795-0.16l-0.531 0.043-0.363 3.107 0.33 0.061c0.643-1.442 1.658-2.689 3.318-2.827 0.461-0.038 0.539 0.175 0.578 0.62l0.653 7.644c0.099 1.233-0.016 1.359-1.496 1.5l0.037 0.387 5.244-0.447-0.033-0.381c-1.473 0.109-1.615 0.008-1.717-1.225l-0.647-7.65c-0.038-0.449-0.005-0.664 0.457-0.699 1.664-0.138 2.875 0.915 3.754 2.222l0.317-0.115-0.885-3.002zm2.789 0.164l-0.049 0.387c1.166 0.152 1.229 0.271 1.529 0.818l2.735 5.166-0.375 2.924c-0.163 1.233-0.301 1.329-1.777 1.148l-0.051 0.387 5.222 0.678 0.055-0.379c-1.473-0.212-1.584-0.337-1.418-1.563l0.442-3.455 2.902-3.025c0.798-0.823 1.248-1.33 2.506-1.164l0.051-0.387-3.268-0.429-0.051 0.384c0.813 0.106 1.012 0.364 0.977 0.608-0.018 0.169-0.208 0.364-0.321 0.48l-2.896 3.002-2.08-3.857c-0.043-0.092-0.152-0.302-0.145-0.408 0.046-0.255 0.364-0.342 1.254-0.243l0.043-0.381-5.281-0.691h-0.004zm-14.902 1.481l-4.785 1.185 0.099 0.387c1.275-0.308 1.43-0.232 1.723 0.976l1.689 6.762c0.3 1.205 0.209 1.346-1.066 1.678l0.094 0.375 4.785-1.197-0.1-0.37c-1.279 0.304-1.43 0.219-1.726-0.982l-1.684-6.768c-0.3-1.197-0.211-1.334 1.064-1.666l-0.093-0.38zm-8.002 2.074l-0.287 0.117c-0.046 0.272-0.247 0.596-0.508 0.705-0.131 0.053-0.489 0.047-0.955 0.1-0.47 0.031-1.07 0.138-1.696 0.392-1.576 0.647-2.629 2.216-1.912 3.975 0.724 1.773 2.423 1.89 4.073 1.904 1.635 0.011 3.238-0.102 3.775 1.219 0.417 1.01-0.45 2.002-1.545 2.451-1.734 0.71-3.097-0.411-4.404-1.789l-0.287 0.117 1.396 3.41 0.387-0.16c0.085-0.236 0.228-0.544 0.387-0.607 0.141-0.053 0.557-0.104 1.058-0.182 0.509-0.102 1.099-0.223 1.611-0.432 2.074-0.851 3.314-2.192 2.364-4.513-0.707-1.735-2.438-1.895-4.102-1.899-1.681-0.014-3.283 0.128-3.742-1.005-0.396-0.958 0.309-1.807 1.121-2.135 1.597-0.657 3.349 0.618 4.316 1.826l0.325-0.133-1.373-3.361h-0.002zm44.474 1.617c-2.085-0.046-4.185 1.113-5.123 3.174-1.25 2.748 0.062 6.004 2.655 7.187 2.585 1.177 5.912 0.032 7.152-2.717 1.26-2.755-0.07-6.005-2.65-7.185-0.65-0.294-1.338-0.444-2.034-0.459zm1.054 0.58c0.27 0.034 0.54 0.108 0.83 0.236 2.24 1.011 1.76 3.838 0.82 5.918-0.95 2.084-2.763 4.295-5.002 3.274-2.247-1.025-1.775-3.844-0.829-5.928 0.829-1.817 2.319-3.737 4.181-3.5zm8.1 3.693l-0.23 0.309c1.05 0.795 1.08 0.957 0.35 1.953l-4.15 5.602c-0.74 0.996-0.9 1.014-1.97 0.244l-0.23 0.32 4.1 3.024 0.24-0.315c-1.19-0.893-1.22-1.059-0.49-2.051l2.01-2.722 0.49 0.359c1.22 0.901 2.43 2.008 1.53 3.676l0.28 0.205 2.74-3.703-0.27-0.199c-1.36 1.497-2.74 0.677-4.05-0.288l-0.49-0.365 2.36-3.189c0.33-0.442 0.4-0.439 1.26 0.193 1.7 1.258 2.85 2.603 2.62 4.885l0.25 0.066 0.77-2.738-7.12-5.266zm-64.568 0.315c-0.945-0.014-2.109 0.399-3.51 1.324l-3.578 2.361 0.219 0.321c0.933-0.597 1.101-0.572 1.785 0.463l3.848 5.812c0.685 1.032 0.645 1.201-0.277 1.826l0.211 0.321 3.935-2.6-0.215-0.32c-1.088 0.703-1.261 0.675-1.943-0.36l-1.85-2.781 1.004-0.662c0.424-0.283 0.902-0.076 1.502 0.281l3.914 2.246 2.793-1.838-0.217-0.33c-0.826 0.548-1.142 0.449-1.439 0.315l-4.184-2.004c-0.197-0.092-0.416-0.084-0.625-0.049l-0.021-0.033c0.901-0.723 1.573-1.952 0.836-3.065-0.512-0.77-1.235-1.21-2.182-1.224l-0.006-0.004zm-1.308 1.004c0.59 0.062 1.109 0.41 1.547 1.07 0.876 1.318 0.456 2.427-0.989 3.412l-0.834 0.551-2.545-3.842 0.834-0.545c0.732-0.482 1.396-0.709 1.987-0.646zm-8.842 5.431l-5.789 5.868 0.281 0.269c0.65-0.639 0.822-0.645 1.705 0.221l4.957 4.896c0.883 0.873 0.881 1.045 0.248 1.705l0.27 0.27 6.154-6.236-1.478-2.579-0.348 0.1c0.413 2.25 0.63 3.138-1.016 4.809l-1.043 1.052c-0.339 0.354-0.474 0.284-0.873-0.115l-2.935-2.892 0.574-0.584c1.491-1.505 2.558-1.522 3.83-0.487l0.232-0.242-3.478-3.428-0.236 0.243c1.063 1.257 0.38 2.628-0.623 3.642l-0.575 0.586-3.201-3.162 1.627-1.641c1.07-1.088 2.249-1.115 4.322-0.871l0.106-0.254-2.711-1.17zm88.078 4.293l-0.31 0.227c0.54 0.728 0.4 1.191-0.38 1.777l-4.05 3.02c-2.38 1.773-1.86 3.991-0.26 6.142 1.34 1.805 3.42 3.582 5.73 1.866l4.37-3.264c0.93-0.692 1.27-0.543 1.87 0.266l0.32-0.239-2.06-2.775-0.32 0.23c0.69 0.929 0.77 1.421-0.13 2.088l-4.42 3.295c-1.82 1.35-3.67 0.141-4.78-1.353-1-1.339-1.33-2.957 0.9-4.614l4.05-3.019c0.99-0.742 1.16-0.707 1.96 0.342l0.31-0.231-2.8-3.758zm-95.734 3.694l-1.651 2.599 0.336 0.203c0.265-0.367 0.614-0.792 1.115-0.474 0.11 0.067 0.405 0.439 0.762 0.976l3.467 5.229-7.484-0.945c-0.174-0.022-0.309-0.047-0.397-0.1-0.215-0.138-0.111-0.489 0.408-1.312l-0.326-0.209-2.644 4.187 0.326 0.199c0.523-0.823 0.941-0.865 2.125-0.717l9.769 1.17 0.143-0.226-5.403-8.28c-0.478-0.74-0.596-1.283-0.218-2.097l-0.326-0.203h-0.002zm44.584 0.447c-0.883-0.041-1.846 0.131-2.551 0.131-0.777 0.646-1.927 0.454-2.764 1.16-0.063 0.579 0.578 0.389 0.832 0.58 0.579 1.802 1.157 3.539 1.287 5.535-0.258 0.191-0.511 0.51-0.254 0.768 1.993-0.131 4.437-0.001 5.977-1.354 0.516-0.639 1.03-1.735 0.447-2.633-1.674-0.448-0.706-1.801-0.9-3.023-0.387-0.867-1.191-1.123-2.074-1.164zm12.423 0.131c-0.639 0.261-1.471 0.394-1.793 1.033-0.257 0.579-0.258 1.544 0.452 1.738 1.155 0.576 1.087-1.095 1.341-1.738 0.52-0.254 1.16-0.061 1.485 0.447 0.77 2.381-2.052 2.19-3.207 3.151-0.516 0.512-1.353 1.161-1.031 2.058 1.218 0.647 2.565 1.093 4.044 1.16 0.195-0.452 1.032-0.901 0.707-1.48-1.289 0.131-2.249-0.251-3.273-0.699 1.088-1.357 3.662-0.392 4.492-2.324-0.06-0.576 0.198-1.346-0.187-1.866-0.643-0.833-1.804-1.54-3.03-1.48zm-14.14 0.906c0.833 0 1.927-0.067 2.185 0.961-0.06 0.643-0.638 1.097-1.285 1.225-1.028 0.321-1.671-0.257-1.734-1.225-0.265-0.766 0.449-0.639 0.834-0.961zm-6.457 0.971c-1.155 0.07-2.549 1.023-3.313 1.347-0.579 0.58-1.869 0.638-1.738 1.733 0.449-0.067 0.835 0.061 1.16 0.453 0.643 1.865 2.377 3.339 2.059 5.398h0.445c1.544-1.734 6.107-0.901 4.631-4.437-1.226 0.318-0.964 1.545-1.992 2.252-0.258 0.388-0.907 0.258-1.225 0.127-0.448-0.512-1.027-1.158-0.967-1.932 0.71-0.576 1.545-0.381 2.319 0 0.06-1.028-0.45-1.859-0.899-2.633-0.639-0.194-0.191 0.774-0.58 1.032-0.452 0.321-0.962 0.834-1.545 0.453-0.254-0.65-0.837-1.099-0.773-1.865 1.031-0.714 2.762-0.516 3.797 0 0.385-0.131 0.19-0.516 0.254-0.774-0.336-0.917-0.941-1.196-1.633-1.154zm27.162 0.385c-0.191 0.007-0.383 0.024-0.576 0.056-1.092 0.449-1.092 1.611-1.032 2.639-0.385 0.381-0.901 0.449-1.353 0.58-1.092 0.449-0.832 1.741-0.701 2.639 0.254 1.028 1.218 1.22 1.928 1.732 0.964 0.385 2.182 0.255 3.019-0.193 0.516-0.64 0.896-1.476 0.578-2.313-0.516-0.897 0.645-0.963 1.033-1.412 0.255-0.706 0.639-1.421 0.254-2.191-0.482-0.917-1.468-1.43-2.584-1.524-0.186-0.015-0.375-0.02-0.566-0.013zm1.031 1.076c0.314 0.028 0.591 0.169 0.832 0.461 0.191 0.71-0.322 1.222-0.58 1.611-0.321 0.194-0.764 0.127-1.152 0.127-0.385-0.452-0.839-1.095-0.326-1.607 0.385-0.195 0.388-0.517 0.9-0.584 0.113-0.015 0.221-0.018 0.326-0.008zm-19.767 0.81c0.374 0.019 0.707 0.146 0.923 0.483 0.262 0.706 0.067 1.547-0.707 1.804-0.512 0.131-0.899 0.325-1.478 0.254-0.385-0.639-0.767-1.473-0.58-2.179 0.387-0.099 0.934-0.292 1.457-0.348 0.13-0.014 0.26-0.02 0.385-0.014zm23.765 0.584c-0.175 0.011-0.351 0.042-0.527 0.098-0.452 0.841 0.582 0.644 0.9 1.16-0.191 1.092-1.089 1.73-1.474 2.631 0.19 0.579 0.765 0.58 1.154 0.834 0.385-0.894 0.899-1.736 1.478-2.506 0.77-0.385 0.703 0.575 1.155 0.9 0.127-0.067 0.199-0.321 0.386-0.253l0.065-1.034c-0.627-0.774-1.581-1.616-2.615-1.802v0.004c-0.172-0.031-0.347-0.042-0.522-0.032zm-18.597 0.225c-0.449 0.258-0.902 0.644-0.708 1.287 0.131 0.519 0.518 0.644 0.907 0.898 0.448-0.19 0.768-0.704 0.828-1.025 0.201-0.777-0.515-1.16-1.027-1.16zm-20.543 0.707c-1.385-0.064-2.522 1.459-3.758 2.191-0.516 0.71-1.544 1.025-1.481 2.053 0.258-0.067 0.637 0.132 0.768-0.193 1.801 1.028 2.571 2.961 3.924 4.244l0.254 1.027c0.837-0.639 2.127-1.087 2.191-2.185-1.095 0.197-1.676-0.704-2.191-1.481-0.322-0.773 0.455-0.773 0.773-1.158 0.452-0.064 0.904 0.004 1.285 0.205 0.262-0.65-0.318-1.294-0.445-1.934-0.258-0.325-0.581-0.578-1.033-0.451 0 0.901-0.381 1.416-1.028 2.059-1.024 0-1.22-1.163-1.732-1.738 0.77-1.484 2.762-1.026 4.238-1.288 0-0.642-0.764-0.903-1.152-1.224-0.209-0.081-0.416-0.118-0.613-0.127zm33.177 0.793c0.115-0.013 0.232-0.012 0.346 0.002 0.458 0.056 0.876 0.331 0.973 0.816 0.063 0.767-0.513 1.086-0.961 1.606-0.643 0.321-1.354-0.07-1.739-0.578-0.063-0.583 0.193-1.029 0.514-1.354 0.194-0.29 0.522-0.453 0.867-0.492zm10.43 0.625c-0.535 0.109-1.119 0.993-1.203 1.478-0.382 0.77-1.542 1.154-1.479 2.182 0.322 0.385 0.77 0.705 1.159 0.578v-0.121c0.381-0.456 0.382-1.291 1.287-1.037 1.282 0.646-0.52 1.287-0.52 1.937 0.067 0.7 0.776 0.772 1.164 1.026-0.131-0.254 0.254-0.327 0.254-0.578 0.385-1.35 3.284-2.057 1.744-3.533-0.65-0.262-0.78 0.442-1.17 0.767-0.512-0.067-0.958-0.192-1.279-0.641 0.131-0.646 0.965-0.451 0.838-1.158-0.17-0.748-0.474-0.965-0.795-0.9zm31.536 0.967l-3.06 0.672 0.05 0.332c1.57 0.137 3.08 0.684 3.76 2.207 0.18 0.423 0.01 0.568-0.4 0.752l-7.02 3.101c-1.13 0.495-1.28 0.428-1.9-0.922l-0.35 0.155 2.13 4.812 0.36-0.16c-0.59-1.353-0.54-1.522 0.6-2.02l7.01-3.101c0.4-0.184 0.63-0.219 0.82 0.209 0.67 1.515 0.06 3.001-0.89 4.262l0.22 0.257 2.55-1.808-0.22-0.487c-0.25-0.028-0.42-0.373-0.53-0.613l-2.81-6.357c-0.11-0.244-0.26-0.602-0.11-0.807l-0.21-0.484zm-36.724 3.597c-0.452 0.255-0.067 0.703 0 1.032 0.831 0.19 1.8 1.989 2.506 0.894-0.579-0.83-1.414-1.859-2.506-1.926zm-75.107 0.121l-1.865 4.559 0.359 0.15c0.509-1.208 0.663-1.282 1.811-0.812l6.451 2.656c1.148 0.473 1.207 0.629 0.723 1.848l0.365 0.154 1.865-4.564-0.365-0.143c-0.516 1.212-0.67 1.284-1.815 0.811l-6.447-2.655c-1.144-0.473-1.206-0.631-0.723-1.853l-0.359-0.151zm27.719 0.581l-0.906 1.351 1.033-1.351h-0.127zm40.445 2.384c-0.448 0.255-0.326 0.701-0.326 1.026 0.964 0.643 0.259 1.929 1.16 2.572 0.647 0 0.966-0.449 1.479-0.707 0.127-0.639 0.901-1.222 0.453-1.932-1.088 0.322-1.805-0.637-2.766-0.959zm-23.611 0.448c-0.726-0.085-1.501 1.351-2.561 1.158 0 0.515-0.004 1.027 0.512 1.285 0.77 0 1.994 1.159 2.379-0.127l0.387-1.606c-0.241-0.482-0.475-0.682-0.717-0.71zm-12.524 0.384c-0.643 0.198-0.581 0.899-1.033 1.287l1.033-1.287zm1.041 2.711c-0.533 0.527-1.066 1.017-1.175 1.53 0.374-0.59 0.766-1.085 1.175-1.53zm-36.023 0.436l-0.713 3.388 0.381 0.084c0.24-1.137 0.558-1.514 1.656-1.281l5.785 1.221-8.853 4.889-0.783 3.714 0.38 0.084c0.092-0.3 0.314-1.282 0.762-1.187l7.666 1.629c0.844 0.18 1.174 0.747 1.043 1.627l0.381 0.084 0.734-3.479-0.38-0.088c-0.195 0.912-0.649 1.54-1.663 1.325l-7.584-1.6 0.012-0.037 11.236-6.309 0.118-0.553-8.739-1.849c-1.141-0.244-1.257-0.594-1.048-1.572l-0.385-0.088-0.006-0.002zm83.01 1.094l0.193 0.843v-0.392l-0.193-0.451zm26.494 1.617l-0.38 0.07 0.66 3.234 0.38-0.07c-0.17-0.819 0-1.252 0.36-1.326 0.17-0.032 0.63 0.023 1.1 0.111l1.13 0.221 0.9 4.449-0.96 0.729c-0.22 0.173-0.65 0.551-0.96 0.611-0.34 0.071-0.63-0.159-0.83-1.109l-0.38 0.072 1 4.873 0.37-0.076c-0.08-0.873-0.03-1.207 0.72-1.762l7.91-5.928c0.23-0.176 0.27-0.216 0.26-0.287-0.01-0.053-0.05-0.083-0.2-0.154-0.57-0.276-1.07-0.665-1.56-1.043-0.03 0.148-0.24 0.277-0.4 0.387l-6.45-1.414c-1.72-0.375-2.21-0.543-2.67-1.588zm3.78 2.318l4.78 1.053-3.97 2.947-0.81-4zm-70.589 5.391c-0.063 0.258-0.448 0.451-0.127 0.713 0.064-0.195 0.385-0.583 0.127-0.713zm68.849 4.498v0.002l-0.19 4.789 0.39 0.011c0.06-1.31 0.18-1.434 1.42-1.384l3.54 0.127-0.21 5.492-3.54-0.133c-1.24-0.048-1.35-0.181-1.31-1.492l-0.39-0.012-0.18 4.779 0.39 0.018c0.06-1.169 0.18-1.301 1.41-1.252l6.96 0.258c1.24 0.053 1.35 0.19 1.32 1.359l0.38 0.016 0.19-4.785-0.39-0.022c-0.06 1.318-0.18 1.443-1.42 1.397l-2.92-0.112 0.22-5.486 2.91 0.106c1.24 0.045 1.34 0.182 1.31 1.496l0.39 0.009 0.18-4.779-0.38-0.016c-0.06 1.173-0.18 1.287-1.42 1.241l-6.96-0.258c-1.23-0.05-1.35-0.175-1.32-1.348l-0.38-0.021zm-113.93 0.037l-0.004 0.002-0.39 0.012 0.115 3.455 0.392-0.012c-0.038-1.162 0.178-1.607 1.297-1.639l5.506-0.185c2.261-0.078 3.11 1.974 3.174 3.836 0.053 1.663-0.61 3.179-3.379 3.271l-5.045 0.172c-1.236 0.039-1.352-0.09-1.412-1.397l-0.393 0.012 0.161 4.692 0.386-0.024c-0.028-0.901 0.35-1.208 1.325-1.236l5.045-0.166c2.963-0.103 3.8-2.219 3.709-4.901-0.071-2.246-0.768-4.892-3.643-4.796l-5.453 0.183c-1.162 0.034-1.359-0.279-1.391-1.279zm103.08 0.096c-0.71 1.031 0.45 2.508-0.06 3.472 0.51 0.647 1.1 0.065 1.61-0.26 0.26-0.833 1.41-1.217 0.76-2.312-1.22 0.646-1.34-0.579-2.31-0.9zm-61.018 1.16c-0.195 0.643-0.964 0.962-0.901 1.732 0.124 0.067 0.253 0.321 0.448 0.194-0.06-0.58 0.071-1.151 0.326-1.6 0.321-0.194 0.443-0.194 0.705 0 0.063 0.449-0.063 1.151-0.324 1.6 0.063 0.194 0.263 0.583 0.578 0.453-0.064-0.58 0.067-1.417 0.646-1.805 0.834 0.388-0.194 1.098 0.127 1.805 0.837-0.067 0.257-1.353 0.967-1.805-0.841-0.191-1.675-0.574-2.572-0.574zm58.078 2.019c-0.83-0.05-1.85 1.242-2.91 0.619v0.893c0.58 0.385 1.22 1.161 2.18 0.967 0.65-0.58 1.42-0.962 1.49-1.86-0.23-0.434-0.48-0.602-0.76-0.619zm-73.608 0.266c-0.067-0.012-0.142-0.004-0.222 0.027-0.195 0.258-0.258 0.901 0.127 1.031 0.194-0.067 0.387-0.323 0.32-0.578 0.098-0.241-0.023-0.446-0.225-0.48zm63.428 0.226c-0.19 1.156-1.47 0.38-2.05 0.956 0.06 0.9 0.96 1.676 1.6 2.195 0.71-0.262 0.97-1.035 1.16-1.678 0.45-0.773-0.26-0.897-0.71-1.473zm-67.125 2.76c-0.833 0.067-1.543 0.642-2.058 1.285-0.516 0.453-0.069 1.158 0.447 1.352 0.643 0.194 1.095 0.194 1.738 0-0.06-0.837 0.258-1.863-0.127-2.637zm70.645 0.838c-0.42-0.078-1.22 0.408-1.46 0.768-0.52 0.197-1.8-0.455-1.47 0.711 0.31 0.445 0.76 1.027 1.28 1.154 1.8 1.095 0.7-1.347 1.8-1.733 0.21-0.602 0.1-0.853-0.15-0.9zm2.39 0.315c-0.64 0.65 0.2 1.288 0 2.058 0 0.71 0.72 0.84 1.23 0.586 0.51-0.325 0.77-0.905 0.96-1.48-0.06-1.099-1.48-0.776-2.19-1.164zm-65.222 0.238c-0.081-0.011-0.166-0.003-0.25 0.021-0.168 0.049-0.327 0.166-0.426 0.326 0.318 1.159-0.192 2.244 0.447 3.211 0.837-0.067 1.165-0.707 1.871-1.152 0.385-0.392 0.193-0.969-0.26-1.226-0.646 0-0.581-0.767-1.164-1.092-0.063-0.048-0.138-0.077-0.218-0.088zm66.452 5.877c-0.9 1.289 0.96 2.571-0.32 3.666l-0.13-0.067c-0.26-0.325-0.64-0.003-0.77 0.188 0.26 1.226-1.03 1.486-0.71 2.644h0.32c0.13-0.321 0.13-0.648 0.39-0.906 0.19 0.258 0.45 0.453 0.77 0.453 0.2-0.127 0.19-0.322 0.32-0.453l0.52 0.453-0.39 0.387c0.13 1.092 1.09-0.255 1.73 0.32 0.33-0.575-0.19-1.542 0.46-1.994 0.12-0.445 0.25-1.157-0.13-1.605-0.58 0.06-0.71 0.319-1.1 0.701-0.7 0-0.57-0.702-0.57-1.154 0.19-0.255 0.45-0.388 0.77-0.321 0.57-0.067 0.71-0.706 0.84-1.158-0.59-0.385-1.29-1.091-2-1.154zm22.29 3.562c-0.42 1.268-1.21 2.585-0.66 3.86 0.94-1.106 0.88-2.588 0.66-3.86zm-17.34 1.127c0 0.385-0.52 0.774 0 1.092 0.13 0 0.19-0.056 0.26-0.127 0.06-0.385-0.13-0.707-0.26-0.965zm-96.471 0.221c-0.452 1.544 0.577 2.827 1.153 3.664l0.066-0.127c-0.321-1.226 0.261-3.346-1.219-3.537zm95.311 2.092l0.13 1.158c0.13 0.064 0.19-0.063 0.26-0.127 0.07-0.389-0.07-0.833-0.39-1.031zm-73.365 0.392l0.127 0.639 0.132-0.324-0.259-0.315zm72.335 0v1.02c0.2-0.318 0.2-0.765 0-1.02zm-1.35 0.061l-0.13 1.092c0.13 0.06 0.2 0.257 0.33 0.193v-1.285h-0.2zm3.35 0l-0.26 0.517c0.2 0.191 0.07 0.769 0.58 0.575-0.13-0.385 0.26-1.092-0.32-1.092zm-6.45 0.621c-0.08-0.02-0.17-0.02-0.26 0.002-0.12 0.029-0.25 0.096-0.37 0.209-0.32 0.258-0.32 0.839 0.13 1.033-0.13 0.322-0.45 0.51-0.32 0.899-0.13 0.639-0.64 0.323-1.02 0.132-0.2 0.509 0.25 1.215 0.06 1.735l-0.32-0.707c-1.03 0.766 0.38 1.989 0.57 2.759 0.33 0.131 0.58-0.059 0.84-0.193l0.45 0.645c1.1 0 1.67-1.225 2.19-2.059-0.13-0.512 0.19-1.22-0.26-1.605-0.32 0.07-0.77 0.324-0.9 0.712-0.33 0.061-0.78 0.894-1.16 0.315-0.58-1.48 0.9-1.478 1.16-2.506l-1.03-0.254c0-0.194 0.19-0.326 0.32-0.453 0.26-0.362 0.14-0.603-0.08-0.664zm-23.78 0.338c-0.512 0.388-1.154 1.032-1.793 1.226 0 0.255-0.134 0.511 0.127 0.579 0.639 0.702 1.738 0.706 2.639 0.519 0-0.194-0.131-0.389 0.127-0.519-0.516-0.516-0.132-1.862-1.1-1.805zm25.85 0c-0.25 0.194-0.19 0.712 0.06 0.779l0.14-0.133c0.06-0.258 0-0.576-0.2-0.646zm-52.807 0.193c-0.257-0.005-0.509 0.067-0.75 0.26 0.198 0.77-0.52 2.06 0.578 2.445 0.894-0.063 1.8-0.258 2.506-0.961 0-0.197 0.064-0.516-0.127-0.711-0.628-0.291-1.435-1.016-2.207-1.033zm48.947 0v0.453h0.14c0-0.063 0.05-0.126 0.12-0.193l-0.26-0.26zm-9.508 0.112c-0.144 0.015-0.295 0.06-0.457 0.148-0.317 0.834-0.06 1.8 0.647 2.439 0.837 0.071 1.8-0.125 2.443-0.701 0.195-0.254 0.325-0.71 0.125-0.965-1.067 0.393-1.742-1.032-2.758-0.921zm16.588 1.304c-0.52 0.449 0 1.029 0 1.481 0.45 0.254 0.45-0.382 0.45-0.707-0.2-0.255-0.07-0.844-0.45-0.774zm15.57 0.278l-0.68 1.378-1.52 0.221 1.1 1.076-0.26 1.514 1.36-0.719 1.37 0.725-0.26-1.514 1.1-1.076-1.52-0.221-0.69-1.379v-0.005zm-17.63 0.175c-0.52 0.064-0.52 0.766-0.52 1.282 0.13 0.063 0.2 0.262 0.39 0.199 0.39-0.318 0.26-1.032 0.13-1.481zm1.09 0.127c-0.32 0.516-0.25 1.353-0.06 1.932h0.19c0.13-0.579 0.26-1.547-0.13-1.932zm-8.74 0.576c-0.13 0.71-0.25 1.744 0.13 2.379-0.9 0.972-0.26 2.381-0.9 3.481-0.2-0.14-0.58-0.14-0.58-0.46-0.39-0.25-0.96-0.84-1.29-0.12 0 0.96-0.12 1.67 0.58 2.31 0.45 1.04 1.68 0.96 2.77 0.9 0.58-0.06 0.71-0.9 1.41-0.45-0.38-1.35 1.1-2.32 0.45-3.54-1.41-0.32-1.41 1.36-2.44 1.36-0.06-0.58-0.45-1.61 0.13-1.93 0.19 0.06 0.06 0.32 0.12 0.45 0.07 0.32 0.39 0.38 0.65 0.12 0.26-0.57 0.64-1.409 0.13-1.988-1.54-0.063-0.45-1.607-0.9-2.512h-0.26zm1.16 0.2l-0.2 0.259c-0.39 0.382 0.07 0.832 0.32 1.026l0.13-0.127c-0.13-0.389 0.2-0.975-0.25-1.158zm-83.614 0.761l-0.679 1.379-1.518 0.221 1.1 1.079-0.254 1.51 1.351-0.71 1.364 0.71-0.26-1.51 1.103-1.079-1.523-0.221-0.684-1.379zm76.483 1.934l-0.008 0.006c0.002 0 0.009 0.007 0.012 0.008l-0.004-0.014zm-59.676 0.006l0.131 0.514c0.191-0.064 0.123-0.32 0.123-0.514h-0.254zm72.077 0.759c-0.05-0.01-0.11 0-0.19 0.01l-0.26 0.84c0.2 0.19 0.39 0.25 0.58 0.06-0.05-0.28 0.23-0.85-0.13-0.91zm-1.54 0.33v1.16h0.19c0.2-0.06 0.07-0.32 0.13-0.45-0.06-0.26 0.13-0.77-0.32-0.71zm17.55 0.61l-0.68 1.38-1.52 0.22 1.1 1.07-0.26 1.51 1.36-0.71 1.36 0.71-0.26-1.51 1.1-1.07-1.52-0.22-0.68-1.38zm-18.64 0.1v0.58h0.25v-0.58h-0.25zm-67.902 0.13c-0.194 0.19-0.58 0.51-0.453 0.9 0.127 0.19 0.127 0.64 0.519 0.45 0-0.13 0.187-0.19 0.254-0.32-0.127-0.33 0.323-1.1-0.32-1.03zm19.568 0.22c-0.061-0.01-0.132 0-0.213 0.04-0.261 0.57-0.003 1.22 0.061 1.8 0.381 0.06 0.123-0.32 0.381-0.45 0.173-0.39 0.199-1.33-0.229-1.39zm4.028 0.04v0.44l0.127-0.12c0-0.13 0-0.32-0.127-0.32zm5.275 0c-0.321 0.51-0.321 1.47 0 2.05 0.576 0 0.38-0.64 0.574-0.96-0.13-0.39-0.193-0.9-0.574-1.09zm31.121 0c-0.129 0.57-0.447 1.29 0 1.8 0.13 0 0.38 0.13 0.45-0.13-0.13-0.58 0.39-1.67-0.45-1.67zm-37.703 0.06c-0.034-0.01-0.07-0.01-0.102 0v0.71h0.127c0.188-0.07 0.063-0.32 0.123-0.45 0.048-0.1-0.045-0.23-0.148-0.26zm21.557 0c-0.061-0.03-0.146-0.03-0.26 0-0.449 0.77 0 1.61 0 2.44h0.392c0.453-0.57 0.13-1.41 0.194-2.05-0.146-0.05-0.144-0.32-0.326-0.39zm-30.026 0c-0.325-0.06-0.448 0.45-0.127 0.45 0.191-0.07 0.064-0.25 0.127-0.45zm1.16 0v0.71h0.061c0.198-0.13 0.26-0.32 0.26-0.58-0.06-0.13-0.257-0.13-0.321-0.13zm5.85 0l-0.127 1.29c0.124 0.07 0.195 0.32 0.326 0.26 0.382-0.39 0.248-1.1 0.121-1.55h-0.32zm9.455 0c-0.321 0.64-0.322 1.42 0.127 1.99 0.131 0.07 0.193-0.12 0.32-0.25 0-0.65 0.002-1.48-0.447-1.74zm14.852 0c-0.643 0.51-0.26 1.48-0.391 2.19 0.328 0.38 0.647-0.06 0.711-0.32 0.258-0.58 0.128-1.61-0.32-1.87zm-2.383 0.24c-0.074 0.01-0.157 0.07-0.254 0.21 0 0.45-0.188 0.9 0.193 1.16 0.58 0.19 0.197-0.52 0.451-0.64-0.047-0.25-0.17-0.74-0.39-0.73zm-8.061 0.01c-0.046-0.01-0.1-0.01-0.164 0.01-0.321 0.58-0.321 1.61 0 2.18 0.512 0.07 0.386-0.76 0.58-1.15-0.17-0.28-0.094-0.96-0.416-1.04zm-6.853 0.01c-0.58-0.06-0.833 1.22-0.194 1.48 0.385-0.32 0.134-0.97 0.194-1.48zm3.793 0c-0.258 0.32-0.384 0.77-0.321 1.29 0.128 0.06 0.253 0.32 0.448 0.32 0.448-0.2 0.324-0.65 0.324-1.03-0.127-0.2-0.132-0.64-0.451-0.58zm9.453 0v0.58h0.26c0.194-0.13 0.066-0.39 0.066-0.58h-0.326zm-4.951 0c-0.643 0.26-0.384 1.35-0.452 2.06 0.068 0.25 0.259 0.45 0.584 0.38 0.128-0.77 0.253-1.8-0.132-2.44zm0.972 0.09c-0.079-0.01-0.169 0.02-0.265 0.1 0.134 0.84-0.326 2.07 0.32 2.45 0.385-0.52 0.387-1.23 0.387-1.93-0.048-0.25-0.204-0.59-0.442-0.62zm-12.16 0.04c-0.194 0.38-0.194 0.64 0 1.03 0.06-0.06 0.133-0.13 0.26-0.13v-0.9h-0.26zm21.344 0c-0.322 0.12-0.387 0.58-0.387 0.9 0.265 0.13-0.062 0.58 0.387 0.58l0.326-0.32c-0.131-0.39 0.317-1.1-0.326-1.16zm-8.008 0.06c-0.076-0.03-0.169-0.03-0.281 0-0.124 0.39-0.321 0.78-0.254 1.16 0.131 0.26 0.127 0.83 0.572 0.71 0.325-0.32 0.39-0.77 0.326-1.29-0.05-0.19-0.134-0.5-0.363-0.58zm9.277 0.06c-0.076 0.01-0.158 0.07-0.238 0.2-0.063 0.38-0.001 0.9 0.32 1.03 0.385-0.13 0.133-0.52 0.387-0.71-0.045-0.19-0.239-0.56-0.469-0.52zm-20.994 0.07c-0.045-0.03-0.109-0.03-0.205 0-0.127 0.45-0.325 0.78 0 1.16 0.449 0.13 0.321-0.45 0.451-0.71-0.145-0.1-0.111-0.37-0.246-0.45zm6.518 0.03c-0.058 0-0.113 0.04-0.16 0.1-0.198 0.32-0.199 1.03 0.254 1.16 0.06-0.33 0.445-0.52 0.318-0.9-0.048-0.2-0.238-0.39-0.412-0.36zm-9.488 0.23c-0.258 0.39-0.515 0.9-0.26 1.35h0.453l0.127-1.22c-0.127 0-0.257 0-0.32-0.13zm15.431 0.13c0.127 0.45-0.316 1.54 0.326 1.35 0.064-0.07 0.124-0.13 0.254-0.13v-1.22h-0.58zm30.865 0.19v0.39h0.13c0.06-0.07 0.13-0.13 0.06-0.26 0-0.06-0.06-0.13-0.19-0.13zm-55.876 0.26c-0.386 0.71-0.251 1.73-0.127 2.5h0.386c0.389-0.57 0.252-1.73 0.121-2.5h-0.38zm-1.155 0.13c-0.833 0.32-0.324 1.6-0.451 2.37 0.064 0.26 0.387 0.52 0.578 0.26 0.131-0.83 0.258-1.93-0.127-2.63zm2.76 0c-0.254 0.32-0.445 1.02-0.188 1.6 0.322 0.07 0.32 0.39 0.575 0-0.127-0.58 0.259-1.41-0.387-1.6zm49.651 0l-0.59 0.58h-0.19l0.78-0.58zm-80.397 0.05l-0.672 1.38-1.529 0.22 1.103 1.08-0.26 1.51 1.358-0.71 1.359 0.71-0.26-1.51 1.106-1.08-1.525-0.22-0.68-1.38zm37.25 0.01l-0.127 0.83h0.193c0.191-0.19 0.127-0.57 0.127-0.83h-0.193zm18.264 0v0.83h0.253c0.195-0.19 0.067-0.57 0.127-0.83h-0.38zm-23.336 0.11c-0.066-0.01-0.15 0.03-0.264 0.14-0.191 0.58-0.129 1.36 0.387 1.61 0.381-0.25 0.129-0.77 0.193-1.16-0.093-0.14-0.118-0.57-0.316-0.59zm24.75 0.02v0.7h0.127c0.067-0.32 0.067-0.38-0.127-0.7zm-30.412 0.13c-0.322 0.83-0.322 1.67 0 2.5 0.706 0.13 0.32-0.77 0.578-1.15-0.195-0.45 0.001-1.35-0.578-1.35zm56.321 0c-0.38 0.57-0.38 1.61 0 2.18 0.13 0.07 0.2-0.13 0.32-0.26-0.25-0.7 0.65-1.6-0.32-1.92zm-57.353 0.32l-0.316 0.25c-0.194 0.71-0.267 1.74 0.316 2.19 0.643-0.84 0.191-1.54 0-2.44zm15.11 0.38c-0.382 0.65-0.382 2 0 2.76 0.321 0.07 0.322-0.13 0.453-0.38 0.063-0.9 0.32-1.93-0.453-2.38zm-1.239 0.1c-0.056 0-0.115 0.01-0.179 0.03-0.516 0.7 0 1.61 0 2.37h0.324c0.385-0.57 0.19-1.41 0.254-2.18-0.098-0.14-0.23-0.22-0.399-0.22zm4.202 0.08c-0.066-0.02-0.146-0.02-0.258 0.02-0.258 0.83-0.386 2.12 0.127 2.89 0.512-0.58 0.511-1.54 0.447-2.44-0.095-0.15-0.121-0.41-0.316-0.47zm-1.358 0.02c-0.706 0.64-0.189 1.92-0.514 2.76 0.068 0.25 0.386 0.51 0.581 0.26 0.317-0.9 0.449-2.25-0.067-3.02zm2.639 0c-0.643 0.45-0.262 1.28-0.393 1.86 0.131 0.25 0.392 0.57 0.713 0.44-0.127-0.76 0.323-1.85-0.32-2.3zm18.644 0c-0.643 0.19-0.38 1.09-0.447 1.73 0.127 0.19 0.064 0.83 0.58 0.57l0.127-1.02-0.26-1.28zm1.352 0c-0.322 0.57-0.258 1.54 0 2.12 0.127 0 0.323 0 0.387-0.13 0.19-0.64 0.125-1.54-0.387-1.99zm-40.897 0.01c-0.187 0.05-0.356 0.26-0.32 0.44-0.191 0.52-0.125 1.15 0.387 1.41 0.576-0.32 0.257-1.09 0.32-1.61-0.048-0.13-0.119-0.2-0.199-0.23-0.06-0.03-0.125-0.02-0.188-0.01zm22.254 0.11c-0.583 0.52-0.324 1.68-0.193 2.44h0.32c0-0.12 0.064-0.18 0.127-0.25 0.064-0.64 0.386-1.8-0.254-2.19zm1.412 0.13c-0.261 0.71-0.514 1.55-0.259 2.31h0.58l-0.127-2.31h-0.194zm26.235 0l-0.127 0.13c-0.191 0.33-0.125 0.97 0.26 1.16l0.127-0.13c0.257-0.38-0.002-0.96-0.26-1.16zm-11.903 0.19c-0.125 0.03-0.224 0.17-0.322 0.27 0.131 0.58-0.254 1.54 0.385 1.85 0.325-0.57 0.261-1.47 0.066-2.12-0.046-0.01-0.088-0.01-0.129 0zm-1.212 0.01l-0.325 0.7c-0.127 0.45-0.386 1.23 0.194 1.42l0.257-0.26c-0.063-0.58 0.58-1.48-0.126-1.86zm-24.561 0.12v0.84h0.248v-0.84h-0.248zm1.668 0c-0.512 0.32-0.13 0.9 0.064 1.03 0.385-0.13 0.191-0.51 0.254-0.77-0.127-0.06-0.191-0.32-0.318-0.26zm28.352 0.11c-0.056 0-0.121 0-0.194 0.03-0.06 0.64-0.251 1.21 0 1.85 0.516 0.46 0.515-0.44 0.84-0.57 0.131 0.06 0.133 0.19 0.133 0.32h0.447c0.127-0.32 0.258-0.96-0.127-1.29l-0.58 0.52c-0.114-0.28-0.128-0.86-0.519-0.86zm-33.11 0.02l0.131 0.32v-0.32h-0.131zm26.166 0c-0.388 0.58-0.254 1.41-0.127 2.06 0.58 0.13 0.767-0.84 0.707-1.22-0.258-0.26-0.064-0.91-0.58-0.84zm-10.027 0.26v0.9h0.324v-0.9h-0.324zm6.303 0c-0.325 0.52-0.255 1.35-0.061 1.93 0.064 0 0.251 0.07 0.314-0.13 0.068-0.51 0.386-1.54-0.253-1.8zm2.572 0l-0.387 0.58c-0.067 0.45 0.128 1.16 0.52 1.48l0.054-0.13c0.127-0.58 0.392-1.61-0.187-1.93zm-1.354 0.29c-0.119 0.06-0.06 0.35-0.254 0.35 0.128 0.65-0.382 1.74 0.448 1.87 0.194-0.64 0.194-1.55 0-2.19-0.096-0.05-0.154-0.05-0.194-0.03zm-2.633 0.02c-0.05-0.02-0.113-0.02-0.193 0.01-0.194 0.33-0.325 0.83 0.127 1.03 0.191-0.13 0.254-0.32 0.254-0.58 0-0.14-0.035-0.39-0.188-0.46zm-1.46 0.01c-0.026-0.01-0.053-0.01-0.084 0-0.195 0.19-0.195 0.58 0.127 0.71 0.127-0.13 0.126-0.32 0.193-0.45-0.098-0.09-0.159-0.23-0.236-0.26zm-1.825 0.13l-0.254 0.32c0.06 0.13 0.254 0.13 0.381 0.13-0.063-0.13 0.068-0.51-0.127-0.45zm28.553 0.32c-0.26 0.65-0.52 1.41-0.2 2.06l0.33-0.07c0.06-0.64 0.26-1.6-0.13-1.99zm-1.29 0.13c-0.57 0.51-0.32 1.61-0.19 2.32h0.45c0.26-0.78 0.13-1.68-0.26-2.32zm3.6 0l0.14 0.45v-0.45h-0.14zm-1.28 0.13v1.03h0.25c0.26-0.26 0.26-0.77 0.13-1.03h-0.38zm18.31 0.06l-0.69 1.38-1.52 0.22 1.1 1.07-0.26 1.51 1.37-0.71 1.35 0.71-0.26-1.51 1.11-1.07-1.53-0.22-0.67-1.38zm-68.274 0.07c-0.512-0.07-0.51 0.51-0.447 0.9 0.258 0.19-0.132 0.84 0.447 0.7v-1.6zm46.424 0c-0.38 0.64-0.38 1.8 0 2.5 0.07 0 0.27 0 0.33-0.12 0.51-0.78-0.01-1.8-0.33-2.38zm-1.03 0.06l-0.38 0.52c-0.07 0.44-0.38 1.28 0.26 1.6 0.07 0.13 0.25 0.13 0.32 0 0.06-0.64 0.38-1.73-0.2-2.12zm-39.292 0.38c-0.191 0.84-0.645 1.49-0.133 2.32 0.195 0.07 0.323-0.13 0.453-0.26 0.258-0.7 0.129-1.6-0.32-2.06zm38 0l-0.387 0.91c0.258 0.32 0.065 1.22 0.584 0.9 0.127-0.52 0.375-1.55-0.197-1.81zm-41.021 0.14c-0.389 0.12-0.127 0.51-0.194 0.77h0.321l-0.127-0.77zm39.734 0c-0.449 0.38-0.13 1.09-0.193 1.67 0.13 0.25 0.318 0.25 0.58 0.25-0.067-0.7 0.129-1.54-0.387-1.92zm-48.221 0c-0.515 0-0.319 0.51-0.386 0.9 0.19 0.12 0.449 0.12 0.58-0.13 0.063-0.39 0.001-0.58-0.194-0.77zm1.932 0v0.9c0.191-0.26 0.254-0.58 0.254-0.9h-0.254zm1.601 0l0.127 0.32v-0.32h-0.127zm9.581 0l-0.321 0.32c0.131 0.77-0.386 1.93 0.447 2.31 0.453-0.83 0.071-1.86-0.126-2.63zm13.251 0l-0.384 0.32c0.194 0.7-0.326 1.93 0.511 2.06 0.389-0.84 0.064-1.55-0.127-2.38zm-16.457 0.19c-0.04-0.02-0.085-0.02-0.132 0l-0.139 0.83c0.134 0.13 0.137 0.59 0.459 0.46l0.127-1.04c-0.095-0.09-0.192-0.22-0.315-0.25zm-11.767 0c-0.173 0.08-0.139 0.39-0.139 0.58h0.26c0.194-0.13 0.069-0.39 0.133-0.58-0.112-0.03-0.197-0.03-0.254 0zm16.453 0.13c-0.385 0.58-0.254 1.54-0.127 2.18 0.258 0.07 0.316-0.12 0.514-0.12-0.131-0.71 0.256-1.68-0.387-2.06zm13.252 0.12c-0.77 0.78-0.068 1.93 0.254 2.64-0.064-0.13 0.063-0.19 0.127-0.25 0.194-0.77 0.064-1.87-0.381-2.39zm1.309 0.18c-0.087-0.02-0.217 0.05-0.409 0.28 0 0.51-0.458 1.6 0.379 1.8 0.322-0.2 0.384-0.52 0.321-0.9-0.146-0.24-0.031-1.13-0.291-1.18zm-4.186 0.14c-0.026-0.01-0.055-0.01-0.088 0.01v0.84h0.193c0.191-0.13 0.066-0.39 0.133-0.59-0.098-0.09-0.159-0.23-0.238-0.26zm12.812 0.03c-0.325-0.02-0.621 0.59-1.199 0.3-0.318 0.84-0.318 2.12 0 2.89 0.58 0.07 0.325-0.71 0.713-0.9l0.447 0.9c0.195 0.07 0.256-0.13 0.387-0.19v-2.7c-0.128-0.21-0.239-0.29-0.348-0.3zm-15.929 0.1c0.063 0.46-0.195 0.97 0.258 1.29 0.321-0.45 0.002-0.78 0.066-1.29h-0.324zm1.418 0v0.78h0.326v-0.78h-0.326zm15.67 0.08c-0.296 0.02-0.284 1.71-0.239 2.24 0.198 0.06 0.133 0.51 0.514 0.32l0.133-1.93c-0.177-0.47-0.31-0.64-0.408-0.63zm-8.914 0.12c-0.456 0.7-0.068 1.35 0.254 1.98 0.642-0.25 0.193-1.15 0.32-1.72-0.127-0.2-0.32-0.26-0.574-0.26zm-9.522 0.12v0.84c0.131 0.07 0.193-0.13 0.32-0.26 0.064-0.32-0.058-0.44-0.32-0.58zm19.869 0c-0.321 0.46-0.257 1.22-0.066 1.74 0.127 0.25 0.322 0.25 0.58 0.12-0.194-0.63 0.323-1.72-0.514-1.86zm1.471 0.11c-0.051-0.01-0.111 0-0.184 0.03 0 0.57-0.515 1.22 0 1.72 0.385 0.07 0.706-0.44 0.579-0.89-0.17-0.22-0.041-0.84-0.395-0.86zm-25.971 0.03l-0.127 0.9c0.258 0.19-0.001 0.77 0.448 0.58 0.194-0.39 0.194-1.03 0-1.48h-0.321zm19.485 0c-0.58 0.89-0.58 1.99 0 2.89l0.191-0.26c0.067-0.77 0.388-2.06-0.191-2.63zm-3.887 0.19c-0.046 0.01-0.102 0.03-0.166 0.06-0.512 0.38-0.062 0.97 0.133 1.35 0.643 0.13 0.122-0.58 0.447-0.77-0.146-0.19-0.109-0.56-0.299-0.63-0.031-0.01-0.069-0.01-0.115-0.01zm13.064 0.02c-0.18-0.03-0.289 0.48-0.435 0.62 0.067 0.19 0.126 0.58 0.578 0.45l0.066-0.84c-0.079-0.16-0.149-0.22-0.209-0.23zm2.758 0.03c-0.035-0.01-0.071-0.01-0.103 0.01v0.65c0.067-0.07 0.13-0.13 0.254-0.07v-0.39c0.047-0.09-0.046-0.19-0.151-0.2zm-68.439 0.1l-0.684 1.37-1.523 0.22 1.109 1.08-0.266 1.51 1.364-0.71 1.357 0.71-0.258-1.51 1.104-1.08-1.524-0.22-0.679-1.37zm64.324 0.09c-0.062-0.02-0.136-0.02-0.232 0.01-0.128 0.39-0.255 0.97 0.126 1.29 0.318 0 0.259-0.58 0.454-0.84-0.098-0.14-0.162-0.39-0.348-0.46zm-42.418 0.27c-0.321 0.45-0.321 1.49 0 2.06 0.131 0 0.196-0.07 0.26-0.13 0.063-0.58 0.386-1.61-0.26-1.93zm33.309 0c-0.318 0.13-0.258 0.58-0.258 0.64 0.063 0.33 0.324 0.64 0.578 0.39-0.064-0.32 0.259-0.96-0.32-1.03zm-16.59 0.13v0.65h0.26v-0.65h-0.26zm15.304 0l-0.193 0.06c0 0.33-0.061 0.78 0.193 0.84 0.064-0.32 0.393-0.64 0-0.9zm-26.107 0.06c-0.258 0.83-0.125 1.93 0.32 2.58 0.452-0.32 0.132-0.97 0.266-1.42-0.067-0.39-0.003-1.22-0.586-1.16zm1.613 0.13c-0.515 0.77 0 1.74 0 2.58h0.319c0.258-0.84 0.133-1.93-0.319-2.58zm41.084 0.13c-0.385 0.45-0.255 1.22-0.125 1.74h0.252l-0.127-1.74zm-46.986 0.09c-0.059 0-0.127 0.01-0.207 0.04-0.254 0.45-0.063 0.96 0.191 1.35 0.195 0.06 0.256-0.13 0.387-0.19 0-0.39 0.033-0.99-0.221-1.16-0.042-0.03-0.091-0.04-0.15-0.04zm3.004 0.1c-0.254 0.33-0.061 0.77 0.193 0.84v-0.84h-0.193zm-1.418 0.13c-0.187 0.13-0.249 0.2-0.182 0.45 0.127 0 0.182 0.06 0.182 0.13 0.131-0.13 0.327-0.26 0.26-0.45-0.064-0.06-0.129-0.13-0.26-0.13zm15.178 0.34c-0.047-0.01-0.108 0-0.188 0.05v1.16h0.254c0.064-0.26 0.324-0.52 0.193-0.84-0.095-0.1-0.119-0.34-0.259-0.37zm-9.52 0.05l-0.187 0.32c-0.064 0.64-0.064 1.48 0.445 1.74 0.067-0.64 0.389-1.73-0.258-2.06zm41.029 0.06l-0.26 0.58c0.07 0.19 0.26 0.13 0.4 0.13 0.18-0.19 0.05-0.64-0.14-0.71zm-26.646 0.13c-0.049-0.03-0.121-0.03-0.233 0l-0.066 1.73c0.777 0 0.328-0.82 0.586-1.28-0.193-0.09-0.139-0.37-0.287-0.45zm-1.904 0c-0.195 0.64-0.255 1.55 0.066 2.06 0.194 0.07 0.254-0.13 0.381-0.19 0.194-0.58 0.196-1.94-0.447-1.87zm-11.188 0.13c-0.449 0.83-0.189 2 0.199 2.64 0.445-0.78 0.25-2-0.199-2.64zm10.033 0c-0.646 0.06-0.451 0.84-0.451 1.42 0.131 0.06 0.13 0.44 0.451 0.32 0.127-0.51 0.127-1.23 0-1.74zm6.299 0.13c-0.063 0.52-0.383 1.35 0.26 1.73 0.385-0.45 0.254-1.21 0.127-1.73h-0.387zm20.383 0v1.03h0.133v-1.03h-0.133zm-35.363 0.19c-0.131 0.84-0.126 2.19 0.386 2.9 0.385-0.45 0.128-1.36 0.192-1.81-0.194-0.38-0.003-1.15-0.578-1.09zm13.5 0c-0.385 0.19-0.194 0.52-0.254 0.84h0.381c0.194-0.26 0.131-0.71-0.127-0.84zm-11.895 0.13l-0.066 0.13c-0.127 0.71-0.386 1.87 0.193 2.32l0.266-0.26c-0.135-0.71 0.25-1.8-0.393-2.19zm32.018 0.13l0.133 0.84h0.259v-0.84h-0.392zm-30.594 0.26c-0.452 0.71-0.198 1.8 0.254 2.38 0.388-0.71 0.195-1.8-0.254-2.38zm28.227 0c-0.643 0.45-0.256 1.35-0.387 2.06 0.131 0.19 0.189 0.58 0.513 0.45-0.067-0.84 0.58-1.93-0.126-2.51zm1.218 0c-0.318 0.13-0.126 0.51-0.193 0.76 0.131 0.07 0.193 0.33 0.32 0.26 0.127-0.31 0.258-0.96-0.127-1.02zm-27.97 0.18c-0.128 0.78-0.253 1.75 0.132 2.46 0.195 0.06 0.254-0.13 0.321-0.26-0.127-0.71 0.384-1.93-0.453-2.2zm12.191 0.05c-0.026-0.01-0.052 0-0.076 0.01-0.065 0.04-0.119 0.16-0.151 0.4-0.325 0.52 0.254 0.97 0.381 1.29 0.195-0.26 0.063-0.64 0.194-0.91 0.041-0.25-0.165-0.75-0.348-0.79zm12.822 0.09c-0.063 0.71-0.386 1.87 0.194 2.32 0.452-0.52 0.192-1.29 0.259-2-0.13-0.06-0.262-0.32-0.453-0.32zm-11.06 0.13c-0.318 0.58-0.318 1.79 0 2.37l0.258-0.31c0.067-0.64 0.321-1.67-0.258-2.06zm9.58 0.13c0 0.64-0.64 1.41 0.066 1.93 0.385-0.52 0.254-1.42 0.127-1.93h-0.193zm-1.412 0.06l-0.194 0.26c-0.187 0.71-0.319 1.86 0.321 2.31 0-0.19-0.064-0.38 0.127-0.45 0.063-0.64 0.321-1.74-0.254-2.12zm-20.637 0.26l-0.066 0.12c-0.128 0.39-0.383 1.29 0.193 1.49l0.26-0.27c-0.064-0.44 0.189-1.15-0.387-1.34zm14.074 0.2v1.66h0.326c0.188-0.12 0.127-0.38 0.127-0.57-0.318-0.33 0.194-1.09-0.453-1.09zm5.211 0.24c-0.449 0.07-0.194 0.58-0.254 0.9h0.321c0-0.32 0.124-0.63-0.067-0.9zm-12.705 0.12c-0.064 0.01-0.136 0.05-0.217 0.15 0.127 0.77-0.259 1.92 0.321 2.37 0.448-0.51 0.192-1.35 0.259-2.05-0.05-0.19-0.171-0.49-0.363-0.47zm22.033 0.01c-0.385 0.26-0.26 0.91-0.133 1.29 0.131-0.06 0.386 0.07 0.454-0.12-0.131-0.39 0.319-1.1-0.321-1.17zm23.445 0.03c-1.09 0.78-2.51 1.35-2.83 2.7 1.41-0.32 2.25-1.54 2.83-2.7zm-63.89 0.11c-0.127 0.32-0.388 0.77-0.127 1.15 0.127 0 0.317 0 0.381-0.12 0-0.39 0.004-0.78-0.254-1.03zm19.935 0v2.76h0.315c0.067-0.9 0.456-2.38-0.315-2.76zm7.584 0l0.127 0.9c0.453-0.07 0.13-0.58 0.194-0.9h-0.321zm-14.043 0.3c-0.028 0-0.063 0-0.103 0.02v0.83h0.193c0.064-0.06 0.194-0.12 0.127-0.25-0.055-0.17-0.014-0.59-0.217-0.6zm-11.738 0.02v0.71c0.127 0 0.194-0.07 0.194-0.13 0.06-0.26 0-0.45-0.194-0.58zm14.975 0c-0.124 0.58-0.386 1.6 0.193 1.92 0.322-0.32 0.26-0.83 0.26-1.34-0.127-0.2-0.128-0.65-0.453-0.58zm21.861 0.45v0.38h0.26c-0.064-0.19-0.129-0.38-0.26-0.38zm-17.037 0.48c-0.161-0.03-0.32 0.03-0.32 0.22-0.258 0.45-0.128 1.1 0.324 1.29 0.254-0.33 0.387-0.71 0.32-1.16 0-0.19-0.163-0.32-0.324-0.35zm15.344 0.22c-0.072 0-0.134 0.03-0.166 0.13l0.254 0.2c0.13-0.07 0.132-0.2 0.132-0.33-0.065 0-0.148-0.01-0.22 0zm-32.957 0.46c-0.516 0.83-0.068 1.86 0.123 2.63 0.194 0.13 0.324-0.07 0.451-0.19-0.194-0.84 0.45-2.31-0.574-2.44zm19.279 0.06c-0.104 0-0.217 0.06-0.314 0.19 0.13 0.13 0.061 0.45 0.386 0.32 0.06-0.12 0.257-0.19 0.194-0.32-0.066-0.13-0.162-0.19-0.266-0.19zm-17.805 0.06l-0.132 2.51c0.257 0.2 0.261 0.9 0.716 0.46-0.197-0.97 0.511-2.65-0.584-2.97zm-29.468 0.74c0.96 0.83 1.542 2.96 3.086 2.63-0.71-1.08-1.677-2.06-3.086-2.63zm57.843 0.15c-0.367 0.03-0.46 0.51-0.404 0.85 0.191 0.19 0.068 0.77 0.58 0.58v-1.41c-0.064-0.02-0.123-0.02-0.176-0.02zm-19.048 0.4c-0.385 0.9-0.195 2.25 0.253 2.96 0.643-0.46 0.199-1.28 0.327-1.93-0.195-0.39-0.001-1.03-0.58-1.03zm12.087 0c-0.388 0.71-0.26 1.8-0.066 2.64h0.32c0.067-0.84 0.453-2.32-0.254-2.64zm4.051 0c-0.452 0.39-0.129 1.16-0.26 1.68 0.195 0.25 0.383 0.25 0.581 0.25v-1.93h-0.321zm-22.117 0.32c-0.583 0.39-0.328 1.41-0.197 2.06 0.063 0 0.257 0.07 0.324-0.12 0.131-0.58 0.255-1.42-0.127-1.94zm7.518 0.26l-0.385 0.19v2.77h0.578c-0.064-1.04 0.192-2.12-0.193-2.96zm-4.305 0.06c-0.964 0.2-0.451 1.67-0.451 2.44h0.258c0.388-0.64 0.126-1.61 0.193-2.44zm-27.43 0.11l-0.193 0.31c0.844 0.63 0.952 0.95 0.535 1.6l-3.809 5.91c-0.462 0.73-0.743 0.81-1.771 0.28l-0.205 0.3 2.914 1.88 0.205-0.31c-0.996-0.73-1.03-1.17-0.469-2.05l3.731-5.78 0.027 0.01-1.611 9.34 0.33 0.22 7.959-5.52 0.023 0.02-4.041 6.27c-0.53 0.83-0.912 0.63-1.711 0.23l-0.199 0.3 4.135 2.66 0.199-0.3c-0.749-0.64-0.999-0.86-0.359-1.85l3.549-5.51c0.688-1.07 1.1-0.84 1.832-0.44l0.199-0.31-3.135-2.02-6.281 4.27 1.297-7.47-3.151-2.04zm25.498 0.28v0.64h0.194v-0.64h-0.194zm40.503 0.17l-4.05 3.21 0.23 0.29c0.56-0.38 1.05-0.73 1.66 0.03l4.45 5.62c0.56 0.7 0.24 1.01-0.34 1.61l0.23 0.29 6.7-5.32-1.61-3.01-0.33 0.27c0.51 1.73 0.61 3.21-1.14 4.6-0.78 0.62-1.11 0.73-1.55 0.17l-4.34-5.48c-0.81-1.02-0.46-1.31 0.33-1.99l-0.24-0.29zm-30.02 0.4v1.04h0.318v-1.04h-0.318zm23.32 4.22h0.01-0.01zm0.01 0l-0.365 0.17c0.021 0.4 0.033 0.74-0.331 0.9-0.349 0.16-1.69-0.02-2.898 0.55-2.819 1.3-3.782 4.29-2.518 7.02 1.163 2.51 3.877 3.93 7.012 2.48 1.71-0.8 2.37-2.13 2.84-3.7l-0.56-0.15c-0.54 1.77-1.36 2.64-2.41 3.13-0.42 0.19-1.567 0.48-2.581-0.23-0.897-0.62-1.575-1.88-1.949-2.69-1.056-2.27-1.484-4.56 0.48-5.47 1.53-0.71 3.39 0.34 4.4 1.29l0.33-0.15-1.45-3.15zm-45.817 3.04l-0.111 0.35c0.54 0.22 1.154 0.44 0.889 1.31l-2.159 6.97c-0.155 0.52-0.566 0.84-1.457 0.57l-0.111 0.36 4.471 1.37c3.599 0.99 5.805-0.75 6.607-3.35 0.675-2.17 0.146-5.03-3.814-6.26l-4.315-1.32zm3.655 1.71c0.137 0 0.313 0.03 0.539 0.1 2.43 0.75 1.829 3.87 1.429 5.15-1.038 3.38-2.565 3.91-4.144 3.42-0.682-0.22-0.733-0.51-0.557-1.07l2.192-7.11c0.063-0.23 0.128-0.49 0.541-0.49zm30.627 0.13l-0.393 0.07c-0.078 0.39-0.139 0.72-0.535 0.8-0.382 0.07-1.64-0.43-2.947-0.18-3.056 0.58-4.722 3.25-4.157 6.21 0.52 2.72 2.81 4.75 6.198 4.1 1.861-0.35 2.82-1.48 3.654-2.89l-0.508-0.28c-0.947 1.58-1.952 2.22-3.09 2.44-0.452 0.09-1.644 0.09-2.457-0.84-0.713-0.83-1.068-2.21-1.23-3.08-0.474-2.46-0.33-4.79 1.793-5.2 1.663-0.32 3.21 1.15 3.959 2.32l0.369-0.07-0.656-3.4zm-16.95 1.66c-2.806 0.12-4.792 2.23-4.941 5.03-0.148 2.77 1.591 5.3 5.039 5.48 1.89 0.1 3.094-0.78 4.238-1.94l-0.423-0.4c-1.304 1.31-2.433 1.7-3.588 1.64-0.46-0.02-1.611-0.31-2.18-1.4-0.495-0.98-0.515-2.4-0.469-3.29 0.134-2.5 0.836-4.74 2.99-4.62 1.685 0.09 2.837 1.88 3.286 3.2l0.369 0.02 0.187-3.45-0.402-0.03c-0.17 0.36-0.32 0.66-0.719 0.64-0.381-0.02-1.486-0.8-2.814-0.87-0.194-0.01-0.386-0.01-0.573-0.01z" transform="translate(0 -.0022354)"/></g></svg>
